<svg xmlns="http://www.w3.org/2000/svg" xmlns:xlink="http://www.w3.org/1999/xlink" width="1920" zoomAndPan="magnify" viewBox="0 0 1440 809.999993" height="1080" preserveAspectRatio="xMidYMid meet" version="1.0"><defs><clipPath id="8654e61b7b"><path d="M 0 4 L 1197 4 L 1197 810 L 0 810 Z M 0 4 " clip-rule="nonzero"/></clipPath><clipPath id="0af065be5c"><path d="M -275.054688 357.167969 L 1124.308594 -137.585938 L 1457.8125 805.691406 L 58.449219 1300.449219 Z M -275.054688 357.167969 " clip-rule="nonzero"/></clipPath><clipPath id="4c51554e2d"><path d="M -275.054688 357.167969 L 1124.308594 -137.585938 L 1457.8125 805.691406 L 58.449219 1300.449219 Z M -275.054688 357.167969 " clip-rule="nonzero"/></clipPath><clipPath id="1c17106209"><path d="M -275.054688 357.167969 L 1124.308594 -137.585938 L 1457.8125 805.691406 L 58.449219 1300.449219 Z M -275.054688 357.167969 " clip-rule="nonzero"/></clipPath></defs><g clip-path="url(#8654e61b7b)"><g clip-path="url(#0af065be5c)"><g clip-path="url(#4c51554e2d)"><g clip-path="url(#1c17106209)"><path fill="#ffffff" d="M -8.773438 298.753906 C -5.433594 301.453125 -2.328125 304.414062 0.933594 307.203125 C 1.554688 311.148438 0.566406 315.109375 0.101562 319.019531 C -2.707031 335.738281 -6.617188 352.242188 -10.457031 368.742188 C -15.535156 390.199219 -20.957031 411.570312 -26.4375 432.925781 C -18 430.484375 -10.375 426.019531 -2.835938 421.621094 C -2.917969 421.515625 -3.074219 421.304688 -3.152344 421.195312 C -5.84375 420.242188 -8.214844 418.246094 -9.210938 415.523438 C -11.214844 410.636719 -9.84375 405.117188 -7.59375 400.566406 C -5.082031 395.042969 -1.144531 390.253906 3.398438 386.28125 C 6.550781 392.652344 8.921875 399.5625 9.257812 406.71875 C 9.410156 409.421875 8.707031 412.050781 8.046875 414.648438 C 16.394531 409.21875 24.464844 403.359375 32.472656 397.433594 C 36.234375 394.5 40.238281 391.855469 43.777344 388.644531 C 43.183594 388.703125 42.601562 388.769531 42.019531 388.84375 C 37.890625 387.582031 34.226562 384.6875 32.367188 380.75 C 29.847656 375.601562 30.34375 369.542969 31.832031 364.167969 C 35.089844 352.925781 42.617188 343.472656 51.058594 335.605469 C 53.628906 340.941406 56.085938 346.394531 57.515625 352.167969 C 59.265625 357.972656 60.296875 364.066406 59.925781 370.148438 C 59.789062 372.4375 59.128906 374.648438 58.761719 376.902344 C 65.570312 371.710938 72.0625 366.09375 78.386719 360.320312 C 82.941406 356.105469 87.425781 351.792969 91.542969 347.136719 C 87.527344 346.636719 83.535156 345.003906 80.871094 341.863281 C 76.453125 336.796875 75.78125 329.605469 76.628906 323.1875 C 77.464844 315.429688 80.710938 308.207031 84.410156 301.425781 C 86.042969 298.628906 87.863281 295.953125 89.765625 293.335938 C 95.722656 301.375 101.210938 309.992188 104.101562 319.65625 C 105.164062 323.175781 105.425781 326.84375 105.660156 330.5 C 110.046875 324.710938 113.929688 318.546875 117.234375 312.085938 C 119.601562 307.140625 121.863281 302.015625 122.742188 296.566406 C 124.355469 298.453125 126.007812 300.304688 127.554688 302.242188 C 128.714844 303.875 128.023438 305.96875 127.566406 307.726562 C 126.8125 310.554688 125.207031 313.023438 124.066406 315.6875 C 127.023438 314.6875 129.929688 313.414062 133.070312 313.09375 C 144.863281 311.460938 156.753906 314.632812 167.425781 319.5 C 160.113281 327.25 152.054688 334.566406 142.421875 339.316406 C 138.3125 341.046875 133.992188 342.710938 129.449219 342.453125 C 124.390625 342.28125 119.539062 339.550781 116.53125 335.519531 C 115.195312 333.933594 114.066406 332.128906 113.84375 330.027344 C 112.078125 331.695312 110.648438 333.660156 109.074219 335.496094 C 102.710938 342.953125 96.066406 350.160156 89.375 357.316406 C 86.9375 360.171875 84.03125 362.679688 82.09375 365.925781 C 87.867188 363.59375 94.171875 363.390625 100.308594 363.253906 C 107.375 363.113281 114.429688 363.605469 121.480469 364.023438 C 122.664062 360.742188 124.601562 357.761719 127.371094 355.605469 C 131.644531 352.355469 136.890625 350.617188 142.148438 349.78125 C 152.371094 348.289062 162.871094 349.78125 172.605469 353.082031 C 168.488281 358.609375 164.074219 363.9375 159.011719 368.632812 C 153.167969 373.90625 146.457031 379.023438 138.4375 380.125 C 132.199219 381.082031 125.816406 377.925781 122.222656 372.855469 C 118.71875 372.734375 115.222656 373.074219 111.730469 373.304688 C 119.683594 382.007812 123.152344 393.789062 124.222656 405.3125 C 114.835938 403.574219 105.46875 400.933594 97.171875 396.117188 C 92.113281 393.097656 87.207031 388.875 85.617188 382.972656 C 84.789062 380.644531 84.933594 378.144531 85.21875 375.738281 C 79.371094 376.554688 73.484375 377.042969 67.632812 377.851562 C 64.9375 381.933594 61.191406 385.144531 57.589844 388.40625 C 52.730469 392.617188 47.738281 396.691406 42.589844 400.542969 C 41.003906 401.757812 39.425781 402.976562 37.804688 404.132812 C 37.867188 404.265625 37.992188 404.527344 38.058594 404.65625 C 46.257812 404.496094 54.273438 407.089844 61.558594 410.6875 C 70.921875 415.492188 79.34375 422.066406 86.515625 429.746094 C 78.515625 433.941406 70.015625 437.058594 61.425781 439.820312 C 52.859375 442.199219 43.894531 443.957031 34.984375 442.914062 C 28.785156 442.164062 22.5625 439.605469 18.480469 434.742188 C 15.445312 431.242188 13.683594 426.859375 12.542969 422.425781 C 6.984375 425.953125 1.722656 429.921875 -3.84375 433.441406 C -3.707031 433.730469 -3.570312 434.019531 -3.429688 434.3125 C 0.765625 434.367188 4.835938 435.707031 8.550781 437.578125 C 12.828125 439.519531 16.601562 442.375 20.117188 445.460938 C 15.625 448.027344 10.980469 450.347656 6.101562 452.078125 C 0.699219 453.675781 -5.265625 455.152344 -10.765625 453.140625 C -14.890625 451.648438 -17.496094 447.65625 -18.566406 443.558594 C -24.289062 446.875 -29.691406 450.714844 -35.277344 454.25 C -40.480469 470.992188 -46.1875 487.578125 -51.746094 504.207031 C -57.402344 520.882812 -63.148438 537.53125 -69.007812 554.140625 C -72.675781 564.871094 -75.34375 575.941406 -76.839844 587.1875 C -77.984375 597.921875 -78.132812 608.863281 -75.945312 619.480469 C -74.941406 623.761719 -74.070312 628.167969 -71.78125 631.996094 C -63.039062 627.359375 -54.710938 621.917969 -47.136719 615.539062 C -46.195312 614.730469 -45.226562 613.949219 -44.203125 613.25 C -44.15625 613.035156 -44.074219 612.605469 -44.03125 612.390625 C -49.144531 611.21875 -53.699219 607.921875 -56.386719 603.421875 C -60.515625 596.878906 -61.246094 588.839844 -60.636719 581.292969 C -59.828125 571.933594 -56.625 562.988281 -52.636719 554.550781 C -46.640625 559.671875 -41.386719 565.648438 -36.753906 572.015625 C -31.742188 579.152344 -27.40625 587.441406 -27.828125 596.40625 C -24.429688 592.433594 -21.136719 588.351562 -18.117188 584.082031 C -17.617188 583.511719 -18.417969 583.019531 -18.855469 582.789062 C -23.746094 580.144531 -27.101562 575.109375 -28.117188 569.691406 C -29.300781 563.296875 -28.148438 556.699219 -25.972656 550.644531 C -21.34375 538.269531 -13.097656 527.484375 -3.292969 518.738281 C -1 523.738281 1.28125 528.753906 3.164062 533.933594 C 6.105469 543.21875 8.707031 552.953125 7.691406 562.78125 C 7.164062 568.589844 4.921875 574.4375 0.511719 578.398438 C -2.558594 581.304688 -6.53125 582.945312 -10.527344 584.132812 C -17.476562 595.476562 -26.296875 605.550781 -35.460938 615.144531 C -32.984375 615.945312 -30.441406 616.640625 -28.203125 618.023438 C -21.371094 622.078125 -16.660156 628.789062 -13.082031 635.726562 C -18.636719 636.890625 -24.371094 637.1875 -30.03125 636.851562 C -34.695312 636.457031 -39.59375 635.566406 -43.414062 632.675781 C -45.226562 631.371094 -46.445312 629.441406 -47.398438 627.464844 C -54.246094 633.984375 -61.078125 640.523438 -68.167969 646.785156 C -65.601562 652.066406 -62.871094 657.289062 -60.828125 662.804688 C -58.304688 668.039062 -56.660156 673.632812 -54.59375 679.050781 C -52.648438 684.675781 -50.644531 690.273438 -48.796875 695.933594 C -48.234375 698.109375 -47.691406 700.289062 -46.894531 702.402344 C -45.90625 705.011719 -45.488281 707.789062 -44.589844 710.429688 C -36.636719 707.285156 -29.582031 702.3125 -22.65625 697.382812 C -17.527344 693.746094 -12.726562 689.6875 -7.835938 685.75 C -9.816406 684.640625 -11.929688 683.617188 -13.386719 681.816406 C -17.746094 676.777344 -18.6875 669.777344 -18.4375 663.34375 C -17.976562 655.476562 -15.855469 647.691406 -12.210938 640.703125 C -4.960938 647 1.824219 654.199219 5.96875 662.957031 C 7.175781 665.371094 7.59375 668.054688 8.179688 670.660156 C 11.605469 667.648438 14.378906 664 17.609375 660.800781 C 17.4375 660.566406 17.277344 660.335938 17.117188 660.117188 C 11.285156 659.527344 6.242188 655.640625 3.152344 650.816406 C -0.820312 644.628906 -1.964844 637.109375 -2.101562 629.878906 C -2.109375 617.183594 1.582031 604.742188 6.925781 593.316406 C 14.945312 600.226562 22.417969 607.875 28.390625 616.644531 C 31.671875 621.4375 34.324219 626.679688 36.003906 632.25 C 36.992188 630.296875 37.625 628.207031 38.269531 626.128906 C 40.832031 618.25 42.691406 610.171875 44.445312 602.082031 C 44.640625 601.179688 44.71875 600.246094 44.785156 599.328125 C 40.222656 600.035156 35.601562 597.984375 32.601562 594.582031 C 27.980469 589.40625 25.75 582.539062 24.847656 575.769531 C 24.265625 571.773438 24.25 567.726562 24.496094 563.703125 C 30.925781 566.058594 37.296875 568.824219 42.929688 572.75 C 45.074219 574.203125 46.894531 576.046875 48.84375 577.730469 C 49.558594 572.003906 50.71875 566.320312 51.140625 560.5625 C 49.683594 560.160156 48.167969 559.96875 46.753906 559.414062 C 44.230469 558.46875 42.175781 556.636719 40.386719 554.679688 C 36.457031 549.507812 35.1875 542.902344 35.175781 536.539062 C 35.195312 530.59375 36.316406 524.703125 38.015625 519.023438 C 33.324219 512.378906 29.28125 505.214844 26.699219 497.480469 C 23.710938 489.527344 22.046875 481.144531 21.058594 472.726562 C 22.824219 472.726562 24.578125 473.015625 26.3125 473.335938 C 34.570312 474.644531 42.734375 476.542969 50.703125 479.082031 C 59.523438 481.921875 68.132812 485.832031 75.351562 491.730469 C 75.269531 490.222656 75.15625 488.71875 75.070312 487.21875 C 71.214844 486.308594 69.058594 482.476562 67.574219 479.125 C 65.6875 473.296875 67.472656 467.007812 70.5 461.910156 C 75.191406 454.128906 82.308594 448.09375 89.980469 443.371094 C 92.808594 441.574219 95.882812 440.21875 98.835938 438.636719 C 99.980469 448.042969 100.320312 457.652344 98.496094 466.996094 C 97.382812 472.28125 95.554688 477.636719 91.800781 481.65625 C 89.046875 484.699219 85.199219 486.554688 81.167969 487.175781 C 81.402344 491.128906 81.007812 495.09375 81.253906 499.042969 C 81.484375 501.316406 82.535156 503.421875 82.628906 505.71875 C 82.828125 507.800781 82.488281 509.875 82.105469 511.914062 C 81.773438 513.679688 82.046875 515.46875 82.195312 517.234375 C 85.347656 511.382812 89.558594 506.117188 94.621094 501.808594 C 101.476562 495.851562 109.464844 491.324219 117.789062 487.773438 C 124.9375 485.128906 132.101562 482.402344 139.613281 480.988281 C 138.394531 494.574219 135.910156 508.140625 131.128906 520.953125 C 128.382812 528.265625 124.734375 535.355469 119.503906 541.21875 C 115.101562 546.089844 109.3125 549.980469 102.746094 551.050781 C 98.238281 551.941406 93.605469 551.464844 89.15625 550.5 C 91.890625 558.183594 96 565.324219 100.574219 572.058594 C 104.523438 577.714844 108.929688 583.085938 114.011719 587.773438 C 115.1875 588.855469 116.425781 589.921875 117.9375 590.527344 C 117.9375 583.550781 120.960938 577.0625 124.105469 570.988281 C 130.527344 559.621094 138.539062 549.105469 148.121094 540.210938 C 161.519531 527.523438 177.234375 517.671875 192.949219 508.144531 C 196.542969 505.808594 200.429688 503.765625 203.390625 500.617188 C 207.03125 496.085938 210.058594 491.101562 213.296875 486.285156 C 215.128906 483.308594 217.214844 480.46875 218.769531 477.328125 C 216.457031 477.023438 214.105469 476.660156 211.984375 475.636719 C 207.9375 473.644531 204.847656 470.105469 202.734375 466.175781 C 199.828125 460.203125 198.367188 453.582031 198.253906 446.949219 C 197.90625 438.511719 199.472656 430.140625 201.738281 422.050781 C 209.242188 426.753906 216.457031 432.046875 222.585938 438.480469 C 226.984375 443.121094 230.785156 448.460938 232.847656 454.570312 C 236.238281 449.609375 239.167969 444.335938 242.21875 439.160156 C 244.234375 435.191406 246.457031 431.164062 246.953125 426.660156 C 247.265625 424.53125 246.828125 422.402344 246.582031 420.292969 C 241.980469 424.585938 235.730469 427.226562 229.394531 426.96875 C 222.355469 426.746094 215.691406 423.765625 209.992188 419.777344 C 196.519531 410.117188 187.324219 395.542969 181.375 380.289062 C 194.902344 378.960938 208.699219 378.816406 222.058594 381.625 C 227.722656 382.785156 233.1875 384.867188 238.160156 387.828125 C 238.851562 388.277344 239.628906 388.566406 240.433594 388.78125 C 238.652344 379.539062 240.3125 370.128906 242.085938 361.019531 C 236.675781 362.265625 230.910156 361.632812 225.695312 359.828125 C 217.945312 357.050781 211.859375 350.808594 208.109375 343.613281 C 202.398438 332.828125 201.019531 320.308594 201.558594 308.265625 C 202.015625 298.652344 203.886719 289.152344 206.542969 279.910156 C 214.976562 284.820312 222.789062 290.785156 230.117188 297.222656 C 239.421875 305.6875 248.253906 315.460938 252.269531 327.617188 C 253.90625 324.144531 255.078125 320.472656 256.632812 316.960938 C 257.09375 315.949219 257.675781 314.964844 257.910156 313.855469 C 254.59375 309.789062 253.371094 304.273438 254.429688 299.152344 C 256.15625 291.160156 260.921875 284.140625 266.589844 278.382812 C 271.046875 273.800781 276.179688 269.875 281.667969 266.601562 C 283.398438 272.390625 284.324219 278.402344 284.832031 284.417969 C 285.285156 289.726562 285.167969 295.121094 284.085938 300.347656 C 283.046875 305.363281 280.746094 310.363281 276.5625 313.511719 C 274.078125 315.503906 270.949219 316.296875 267.96875 317.222656 C 267.226562 318.621094 266.476562 320.023438 265.867188 321.484375 C 271.015625 319.882812 276.542969 319.425781 281.859375 320.425781 C 284.378906 320.777344 286.878906 321.277344 289.3125 322.039062 C 284.730469 328.382812 279.410156 334.699219 272.121094 337.984375 C 268.257812 339.871094 263.355469 339.808594 259.914062 337.050781 C 259.242188 336.269531 258.460938 337.148438 258.269531 337.851562 C 256.351562 342.675781 254.511719 347.539062 252.8125 352.449219 C 251.984375 355.125 250.695312 357.730469 250.652344 360.578125 C 260.253906 351.46875 273.265625 346.863281 286.230469 345.292969 C 284.449219 354.199219 282.09375 363.109375 277.839844 371.191406 C 275.761719 375.238281 273.171875 379.109375 269.710938 382.109375 C 266.972656 384.378906 263.742188 386.261719 260.148438 386.625 C 257.539062 387.058594 254.914062 386.5625 252.359375 386.085938 C 254.796875 393.929688 258.351562 401.449219 263.222656 408.082031 C 267.800781 399.976562 273.921875 392.9375 279.777344 385.757812 C 282.5625 382.117188 285.769531 378.828125 288.675781 375.289062 C 291.703125 372.148438 294.226562 368.511719 297.585938 365.707031 C 296.886719 363.566406 295.835938 361.5 295.695312 359.214844 C 295.296875 354.539062 297.03125 349.902344 299.777344 346.175781 C 305.257812 338.511719 313.550781 333.394531 322.078125 329.722656 C 326.046875 328.289062 329.988281 326.667969 334.152344 325.875 C 333.398438 333.609375 332.460938 341.382812 330.074219 348.8125 C 328.511719 353.785156 326.402344 358.667969 323.167969 362.796875 C 320.683594 365.980469 317.304688 368.589844 313.375 369.679688 C 309.640625 370.707031 305.621094 370.445312 301.964844 369.226562 C 299.03125 371.863281 296.539062 374.9375 293.902344 377.863281 C 292.078125 380.105469 289.957031 382.152344 288.5625 384.707031 C 292.484375 383.960938 296.390625 383.007812 300.410156 382.953125 C 305.632812 382.683594 310.84375 383.28125 315.976562 384.179688 C 311.84375 391.503906 307.140625 398.632812 300.984375 404.429688 C 296.960938 408.101562 292.175781 411.558594 286.558594 411.917969 C 281.5 412.335938 276.792969 409.503906 273.355469 406.019531 C 273.242188 406.101562 273.003906 406.265625 272.886719 406.34375 C 270.277344 411.0625 267.316406 415.597656 265.113281 420.523438 C 271.078125 418.121094 277.726562 418.351562 283.890625 419.804688 C 289.527344 421.34375 295.070312 423.421875 299.964844 426.664062 C 296.792969 429.757812 293.050781 432.132812 289.472656 434.707031 C 284.792969 437.789062 279.691406 440.3125 274.226562 441.648438 C 270.535156 442.449219 266.515625 442.457031 263.042969 440.824219 C 260.925781 439.847656 259.253906 438.167969 257.726562 436.449219 C 255.269531 441.535156 253.691406 446.988281 251.703125 452.269531 C 249.683594 459.65625 247.410156 467.027344 246.523438 474.660156 C 254.355469 469.402344 262.050781 463.945312 270.011719 458.878906 C 288.882812 446.539062 308.167969 434.851562 327.605469 423.429688 C 336.5 417.730469 345.179688 411.699219 353.480469 405.15625 C 355.132812 403.777344 357.074219 402.6875 358.394531 400.945312 C 357.515625 401.011719 356.679688 401.085938 355.820312 401.191406 C 352.496094 400.175781 349.234375 398.789062 346.457031 396.664062 C 342.410156 393.671875 339.46875 389.292969 337.921875 384.523438 C 335.265625 375.980469 336.324219 366.773438 338.859375 358.335938 C 343.882812 342.113281 353.96875 327.878906 365.84375 315.925781 C 371.886719 326.585938 376.792969 337.898438 380.144531 349.691406 C 382.320312 358.007812 383.734375 366.710938 382.546875 375.296875 C 382.246094 377.691406 381.492188 379.992188 381.03125 382.355469 C 388.308594 376.351562 395.167969 369.855469 402.148438 363.503906 C 403.316406 362.441406 404.46875 361.363281 405.542969 360.199219 C 402.488281 361.3125 399.421875 359.804688 396.835938 358.257812 C 392.703125 355.765625 389.609375 351.625 388.382812 346.964844 C 386.425781 340.039062 387.53125 332.652344 389.722656 325.921875 C 393.828125 313.773438 401.445312 303.085938 410.417969 294.035156 C 415.503906 303.527344 420.140625 313.402344 422.390625 323.988281 C 423.574219 329.441406 424.214844 335.105469 423.378906 340.65625 C 423.257812 341.566406 423.199219 342.488281 423.171875 343.402344 C 426.695312 340.269531 429.894531 336.800781 433.304688 333.550781 C 436.460938 330.5 439.359375 327.191406 442.625 324.253906 C 440.542969 319.324219 440.667969 313.53125 442.953125 308.6875 C 445.863281 302.03125 451.539062 297.011719 457.589844 293.21875 C 468.792969 286.21875 481.933594 283.082031 494.980469 281.992188 C 493.007812 290.789062 490.058594 299.351562 486.308594 307.542969 C 483.25 313.675781 479.734375 319.710938 474.820312 324.558594 C 471.132812 328.039062 466.664062 330.984375 461.570312 331.777344 C 456.355469 332.652344 450.898438 331.394531 446.335938 328.8125 C 444.921875 329.410156 444.089844 330.742188 443.085938 331.820312 C 439.445312 335.824219 435.679688 339.714844 431.863281 343.546875 C 430.492188 344.953125 428.953125 346.242188 427.964844 347.964844 C 432.058594 346.996094 436.160156 345.925781 440.394531 345.847656 C 449.308594 345.449219 458.1875 347.328125 466.511719 350.40625 C 477.894531 354.683594 488.488281 360.972656 497.894531 368.65625 C 489.027344 374.585938 479.757812 379.964844 469.980469 384.230469 C 459.664062 388.777344 448.582031 392.371094 437.191406 392.242188 C 430.441406 392.222656 423.640625 390.167969 418.308594 385.964844 C 413.546875 382.015625 410.273438 376.5625 408.136719 370.820312 C 407.453125 369.5 408.09375 368.085938 408.308594 366.742188 C 405.101562 369.34375 402.289062 372.378906 399.238281 375.152344 C 394.964844 379.179688 390.695312 383.214844 386.378906 387.195312 C 385.648438 387.875 385.003906 388.640625 384.398438 389.421875 C 391.21875 388.71875 398.15625 389.28125 404.734375 391.25 C 415.570312 394.414062 425.5625 400.144531 434.292969 407.246094 C 425.097656 413.714844 415.050781 418.992188 404.476562 422.816406 C 396.089844 425.453125 386.894531 427.527344 378.238281 424.902344 C 374.816406 423.988281 371.875 421.894531 369.398438 419.421875 C 366.265625 416.683594 364.503906 412.808594 362.925781 409.054688 C 353.441406 417.476562 344.195312 426.164062 334.75 434.628906 C 338.609375 436.65625 342.980469 437.28125 347.195312 438.164062 C 355.902344 439.550781 364.679688 440.445312 373.488281 440.925781 C 379.230469 441.160156 384.972656 441.34375 390.710938 441.617188 C 400.78125 441.550781 410.859375 441.703125 420.925781 441.429688 C 439.183594 440.921875 457.449219 440.230469 475.660156 438.738281 C 472.492188 435.300781 470.023438 431.117188 469.363281 426.4375 C 468.363281 419.886719 470.160156 413.21875 473.210938 407.433594 C 476.730469 400.253906 482.0625 394.113281 487.90625 388.726562 C 495.636719 381.664062 504.558594 376.003906 513.941406 371.402344 C 515.671875 381.820312 516.261719 392.441406 515.605469 402.984375 C 514.828125 413.738281 512.488281 425.058594 505.34375 433.503906 C 504.949219 434.011719 504.746094 434.621094 504.53125 435.210938 C 513.496094 433.507812 522.472656 431.738281 531.230469 429.144531 C 529.671875 427.6875 527.972656 426.359375 526.660156 424.671875 C 523.359375 420.5625 522.132812 415.0625 522.703125 409.882812 C 523.417969 403.476562 526.113281 397.449219 529.648438 392.113281 C 536.484375 381.589844 546.378906 373.4375 556.953125 366.859375 C 559.550781 376.253906 561.050781 385.980469 561.1875 395.726562 C 561.203125 401.386719 560.65625 407.09375 558.992188 412.519531 C 558.1875 415.246094 556.636719 417.664062 555.613281 420.300781 C 561.371094 418.023438 566.707031 414.8125 571.925781 411.507812 C 572.003906 408.429688 572.652344 405.347656 574.09375 402.605469 C 576.179688 398.4375 579.824219 395.253906 583.855469 393.019531 C 592.355469 388.34375 602.347656 387.328125 611.898438 387.753906 C 620.300781 388.191406 628.59375 390.023438 636.542969 392.738281 C 630.328125 401.015625 623.46875 408.886719 615.417969 415.441406 C 612.027344 418.175781 608.445312 420.714844 604.527344 422.644531 C 599.730469 425.136719 594.277344 426.695312 588.835938 426.128906 C 582.488281 425.390625 576.773438 421.507812 573.078125 416.398438 C 568.230469 419.789062 563.183594 422.933594 557.753906 425.324219 C 536.75 434.695312 514.109375 439.332031 491.898438 444.859375 C 489.621094 445.496094 487.347656 446.167969 485.234375 447.238281 C 489.214844 448.53125 493.265625 449.777344 496.914062 451.882812 C 506.128906 456.6875 514.804688 462.464844 523.226562 468.535156 C 525.570312 465.539062 528.652344 463 532.40625 462.042969 C 539.679688 460.09375 547.316406 462.304688 553.835938 465.617188 C 561.859375 469.890625 568.746094 476.074219 574.390625 483.160156 C 569.410156 485.539062 564.089844 487.050781 558.785156 488.484375 C 553.296875 489.816406 547.667969 490.730469 542.011719 490.609375 C 538.199219 490.453125 534.300781 489.890625 530.875 488.105469 C 527.222656 486.328125 524.292969 483.050781 523.070312 479.160156 C 522.132812 476.925781 521.875 474.511719 521.300781 472.183594 C 517.777344 470.648438 514.546875 468.484375 510.90625 467.21875 C 513.648438 474.304688 512.472656 482.207031 509.925781 489.164062 C 507.433594 495.515625 504.066406 501.570312 499.667969 506.804688 C 496.042969 501.894531 493.066406 496.527344 490.449219 491.023438 C 488.847656 486.886719 487.148438 482.714844 486.625 478.273438 C 486.03125 474.011719 486.410156 469.457031 488.554688 465.652344 C 490.066406 463.222656 492.242188 461.277344 494.570312 459.644531 C 494.488281 459.558594 494.316406 459.386719 494.230469 459.300781 C 484.871094 455.132812 475.449219 451.089844 466.003906 447.109375 C 462.980469 448 459.894531 448.667969 456.808594 449.320312 C 459.082031 451.519531 461.457031 453.660156 463.238281 456.300781 C 469.4375 465.035156 471.90625 475.832031 472.527344 486.378906 C 472.992188 494.613281 472.320312 502.902344 470.726562 510.984375 C 463.105469 507.421875 455.9375 502.957031 449.007812 498.207031 C 445.164062 495.535156 441.695312 492.386719 438.292969 489.191406 C 434.375 485.234375 430.65625 480.949219 428.28125 475.863281 C 426.742188 472.15625 425.3125 468.277344 425.445312 464.203125 C 425.320312 459.71875 427.25 455.597656 428.921875 451.554688 C 410.054688 452.242188 391.171875 452.082031 372.304688 451.738281 C 352.082031 451.308594 331.871094 450.621094 311.671875 449.605469 C 310.117188 449.414062 309.027344 450.71875 307.84375 451.484375 C 281.3125 470.449219 254.667969 489.261719 227.792969 507.738281 C 219.359375 513.621094 210.800781 519.320312 202.378906 525.222656 C 192.117188 532.464844 182.476562 540.597656 173.671875 549.566406 C 165.664062 557.933594 158.335938 567.046875 152.671875 577.175781 C 149.398438 582.898438 146.734375 588.996094 144.976562 595.355469 C 144.695312 596.304688 144.582031 597.296875 144.710938 598.285156 C 158.394531 600.140625 172.324219 600.277344 186.011719 598.375 C 182.914062 594.761719 180.019531 590.707031 179.171875 585.925781 C 177.6875 579.320312 179.269531 572.414062 182.183594 566.429688 C 187.050781 556.914062 194.839844 549.21875 203.398438 542.964844 C 213.089844 535.894531 224.019531 530.652344 235.347656 526.769531 C 235.570312 536.988281 235.140625 547.246094 233.496094 557.347656 C 231.949219 566.675781 229.53125 576.007812 224.886719 584.320312 C 223.71875 586.414062 222.210938 588.292969 221.027344 590.378906 C 228.507812 588.050781 235.78125 585.089844 242.894531 581.832031 C 240.859375 577.085938 241.683594 571.460938 244.433594 567.175781 C 246.800781 563.347656 250.167969 560.226562 253.902344 557.75 C 262.976562 551.730469 273.785156 548.746094 284.554688 547.730469 C 282.652344 555.71875 280.371094 563.691406 276.570312 571.007812 C 274.691406 574.929688 272.265625 578.605469 269.296875 581.789062 C 266.457031 584.664062 262.988281 587.210938 258.929688 587.949219 C 254.625 588.902344 250.050781 588.007812 246.207031 585.9375 C 242.742188 587.449219 239.609375 589.628906 236.117188 591.101562 C 243.726562 594.277344 249.226562 600.964844 252.851562 608.175781 C 254.675781 611.523438 255.835938 615.175781 257.0625 618.773438 C 248.519531 618.726562 239.808594 618.089844 231.738281 615.078125 C 227.605469 613.546875 223.585938 611.121094 221.136719 607.363281 C 219.269531 604.4375 218.765625 600.894531 219.105469 597.488281 C 209.539062 600.535156 199.796875 603.003906 190.042969 605.382812 C 192.882812 607.609375 195.867188 609.683594 198.355469 612.328125 C 206.582031 620.78125 212.332031 631.414062 216.011719 642.558594 C 216.574219 644.152344 217.128906 645.746094 217.652344 647.351562 C 208.765625 647.582031 199.859375 646.882812 191.101562 645.394531 C 182.347656 643.796875 173.53125 641.269531 166.113281 636.199219 C 160.988281 632.671875 156.828125 627.351562 155.707031 621.136719 C 155.09375 618.246094 155.261719 615.28125 155.492188 612.363281 C 149.339844 613.402344 143.183594 614.453125 137.003906 615.289062 C 136.988281 620.78125 135.277344 626.078125 133.953125 631.359375 C 128.308594 651.449219 121.4375 671.167969 114.496094 690.84375 C 113.703125 693.089844 112.796875 695.300781 112.214844 697.613281 C 117.269531 698.796875 122.445312 699.300781 127.625 699.585938 C 129.308594 699.640625 131.023438 699.925781 132.695312 699.582031 C 132.640625 695.695312 132.492188 691.796875 132.90625 687.917969 C 140.78125 690.726562 148.496094 694.074219 155.636719 698.441406 C 157.261719 699.679688 159.351562 698.867188 161.195312 698.867188 C 166.695312 698.445312 172.183594 697.867188 177.65625 697.195312 C 175.996094 692.609375 176.4375 687.578125 177.851562 682.996094 C 179.699219 676.980469 183.074219 671.507812 187.136719 666.734375 C 190.832031 672.242188 194.007812 678.199219 195.773438 684.625 C 196.636719 687.78125 196.84375 691.066406 196.578125 694.316406 C 213.527344 691.21875 230.457031 687.050781 246.074219 679.632812 C 246.011719 679.523438 245.875 679.300781 245.808594 679.1875 C 241.132812 677.546875 238.777344 672.527344 238.269531 667.898438 C 237.347656 659.1875 240.996094 650.878906 245.199219 643.484375 C 245.425781 643.746094 245.878906 644.273438 246.105469 644.535156 C 249.574219 648.367188 252.71875 652.519531 255.191406 657.070312 C 257.660156 661.695312 259.421875 667.082031 258.105469 672.339844 C 263.121094 668.871094 267.914062 665.085938 272.613281 661.203125 C 270.824219 660.359375 268.789062 660.050781 267.160156 658.878906 C 263.027344 656.125 260.714844 651.292969 260.066406 646.480469 C 258.839844 638.183594 260.996094 629.804688 264.179688 622.175781 C 270.8125 627.699219 277.160156 634.015625 280.75 641.996094 C 282.359375 645.503906 282.632812 649.472656 281.828125 653.21875 C 286.5 649.433594 290.710938 645.117188 295.261719 641.191406 C 295.332031 640.972656 295.460938 640.550781 295.53125 640.332031 C 288.5625 637.988281 282.492188 632.753906 279.75 625.859375 C 275.660156 616.125 276.902344 605.078125 280.109375 595.28125 C 284.316406 582.898438 291.398438 571.578125 300.070312 561.835938 C 305.636719 570.199219 310.007812 579.304688 313.683594 588.632812 C 317.027344 598.226562 319.570312 608.519531 317.90625 618.726562 C 322.527344 614.214844 326.808594 609.378906 331.3125 604.753906 C 329.203125 600.808594 328.375 596.097656 329.832031 591.785156 C 332.125 584.808594 337.964844 579.683594 344.058594 575.945312 C 352.074219 571.015625 361.285156 568.410156 370.527344 566.976562 C 369.402344 574.15625 367.542969 581.242188 364.859375 588 C 362.492188 593.46875 359.804688 598.957031 355.492188 603.171875 C 351.636719 607.101562 346.027344 609.433594 340.5 608.734375 C 338.523438 608.597656 336.707031 607.710938 334.769531 607.4375 C 333.269531 608.34375 332.277344 609.84375 331.054688 611.054688 C 327.804688 614.402344 324.53125 617.71875 321.25 621.03125 C 318.402344 623.90625 315.246094 626.542969 313.039062 629.976562 C 310.695312 633.410156 307.113281 635.605469 303.894531 638.097656 C 289.363281 652.03125 274.859375 666 260.132812 679.726562 C 260.027344 680.082031 259.921875 680.433594 259.828125 680.789062 C 262.828125 680.234375 265.625 678.949219 268.589844 678.257812 C 271.558594 677.566406 274.367188 676.355469 277.332031 675.644531 C 279.566406 675.085938 281.878906 674.539062 283.773438 673.164062 C 296.570312 664.796875 308.746094 655.546875 320.917969 646.316406 C 320.988281 642.894531 322.445312 639.492188 325.0625 637.246094 C 328.191406 634.59375 332.183594 633.144531 336.21875 632.617188 C 343.992188 631.464844 351.878906 633.003906 359.222656 635.535156 C 354.46875 641.59375 349.09375 647.347656 342.496094 651.414062 C 338.625 653.714844 333.992188 655.472656 329.453125 654.355469 C 326.382812 653.761719 324.003906 651.550781 321.980469 649.304688 C 317.0625 652.8125 312.171875 656.339844 307.320312 659.933594 C 305.675781 661.195312 303.828125 662.230469 302.460938 663.820312 C 311.316406 662.957031 320.132812 665.75 327.742188 670.136719 C 336.347656 675.035156 343.804688 681.773438 350.125 689.355469 C 351.292969 690.75 352.410156 692.195312 353.535156 693.640625 C 342.664062 697.742188 331.324219 700.84375 319.714844 701.84375 C 311.945312 702.386719 303.699219 702.023438 296.707031 698.25 C 292.867188 696.191406 289.738281 692.859375 287.878906 688.925781 C 286.386719 686.261719 286.097656 683.171875 285.320312 680.269531 C 282.203125 681.652344 278.363281 682.027344 276.152344 684.886719 C 271.542969 689.972656 268.421875 696.230469 266.046875 702.625 C 264.496094 706.894531 263.277344 711.320312 262.894531 715.863281 C 262.710938 718.566406 262.714844 721.5625 264.597656 723.738281 C 265.300781 724.054688 266.011719 724.386719 266.722656 724.722656 C 276.289062 723.128906 285.980469 722.515625 295.621094 721.578125 C 330.546875 718.625 365.519531 716.1875 400.484375 713.753906 C 402.828125 713.253906 404.605469 711.402344 406.667969 710.265625 C 408.984375 708.957031 411.015625 707.265625 412.847656 705.34375 C 410.90625 702.335938 409.867188 698.710938 410.484375 695.132812 C 411.511719 688.742188 415.6875 683.335938 420.476562 679.203125 C 423.726562 676.394531 427.398438 674.109375 431.207031 672.148438 C 432.316406 679.894531 432.765625 687.917969 430.855469 695.582031 C 430.292969 697.777344 429.453125 699.90625 428.21875 701.8125 C 431.5625 702.683594 435 703.269531 438.1875 704.683594 C 441.925781 705.992188 445.292969 708.117188 448.65625 710.171875 C 442.277344 714.984375 435.527344 719.609375 427.75 721.820312 C 427.839844 721.953125 428.023438 722.21875 428.109375 722.351562 C 432.664062 723.429688 437.148438 724.839844 441.761719 725.679688 C 446.65625 726.28125 451.609375 725.742188 456.476562 725.113281 C 466.207031 723.644531 475.789062 721.289062 485.191406 718.414062 C 496.636719 715.136719 507.808594 710.976562 518.765625 706.332031 C 528.972656 701.820312 539.261719 697.085938 548.121094 690.191406 C 553.566406 686.085938 556.484375 679.597656 558.34375 673.21875 C 559.316406 669.84375 560.078125 666.398438 560.421875 662.898438 C 557.816406 665.207031 554.757812 667.230469 551.203125 667.570312 C 543.820312 668.519531 536.667969 665.292969 530.601562 661.398438 C 519.164062 653.722656 510.464844 642.476562 504.398438 630.21875 C 514.910156 627.890625 525.6875 626.582031 536.460938 626.757812 C 543.328125 627.023438 550.425781 627.792969 556.59375 631.054688 C 558.621094 632.003906 560.261719 633.558594 561.945312 635.011719 C 561.667969 625.609375 561.0625 616.210938 560.242188 606.839844 C 559.546875 603.300781 559.613281 599.664062 558.851562 596.148438 C 556.988281 598.421875 555.5625 601.09375 553.277344 603 C 550.75 605.117188 547.734375 606.675781 544.484375 607.269531 C 540.304688 608.421875 535.972656 607.632812 531.804688 606.882812 C 523.261719 604.726562 515.625 600 508.824219 594.519531 C 496.574219 584.515625 486.984375 571.519531 479.960938 557.410156 C 489.808594 555.363281 499.785156 553.804688 509.828125 553.15625 C 519.199219 552.464844 528.683594 552.71875 537.945312 554.417969 C 540.484375 555.039062 543.066406 555.582031 545.503906 556.574219 C 546.25 556.875 547.050781 557 547.859375 557.117188 C 544.871094 549.074219 541.066406 541.375 537.5 533.582031 C 534.28125 533.667969 530.9375 532.953125 528.367188 530.929688 C 524.195312 527.835938 522.085938 522.761719 521.066406 517.824219 C 519.238281 508.085938 521.089844 498.054688 524.4375 488.855469 C 530.980469 493.535156 537.144531 498.886719 541.992188 505.34375 C 545.195312 509.820312 548.042969 515.089844 547.566406 520.773438 C 547.339844 524.5625 545.347656 527.976562 542.726562 530.625 C 543.421875 532.636719 544.632812 534.382812 545.722656 536.191406 C 553.402344 550.019531 561.253906 563.753906 568.882812 577.613281 C 571.136719 574.320312 573.066406 570.820312 575.253906 567.484375 C 575.179688 567.199219 575.128906 566.921875 575.09375 566.648438 C 571.058594 565.988281 567.75 562.902344 566.351562 559.132812 C 563.589844 552.382812 564.449219 544.773438 566.4375 537.9375 C 567.308594 534.660156 568.839844 531.628906 570.15625 528.523438 C 576.734375 534.449219 582.886719 541.339844 585.914062 549.800781 C 588.1875 546.621094 589.910156 543.09375 592.148438 539.882812 C 595.890625 533.671875 599.628906 527.457031 603.546875 521.359375 C 601.089844 516.699219 600.535156 511.015625 602.3125 506.027344 C 604.714844 499.136719 610.113281 493.769531 616.0625 489.777344 C 627.585938 482.144531 641.359375 478.519531 655.027344 477.429688 C 652.851562 486.621094 649.957031 495.675781 645.863281 504.199219 C 642.933594 509.953125 639.546875 515.59375 634.867188 520.109375 C 631.421875 523.449219 627.183594 526.183594 622.414062 527.078125 C 617.550781 528.011719 612.425781 527.175781 608.015625 524.96875 C 607.820312 525.066406 607.429688 525.261719 607.230469 525.363281 C 604.675781 530.453125 601.972656 535.46875 599.234375 540.460938 C 599.226562 540.667969 599.214844 541.074219 599.207031 541.277344 C 607.300781 538.523438 616.175781 540.21875 623.734375 543.769531 C 625.378906 544.617188 627.0625 545.398438 628.671875 546.316406 C 625.589844 549.390625 622.140625 552.058594 618.464844 554.375 C 613.96875 557.273438 609.015625 559.921875 603.574219 560.234375 C 600.28125 560.660156 596.816406 559.574219 594.394531 557.3125 C 593.527344 556.546875 592.730469 555.714844 591.957031 554.867188 C 591.820312 554.945312 591.546875 555.105469 591.410156 555.183594 C 584.675781 568.023438 577.828125 580.808594 570.996094 593.597656 C 572.152344 597.347656 572.398438 601.300781 572.484375 605.199219 C 572.660156 605.070312 573.011719 604.816406 573.183594 604.6875 C 579.527344 598.429688 588.152344 595.058594 596.726562 593.167969 C 608.183594 590.695312 620.070312 590.816406 631.613281 592.652344 C 628.050781 600.03125 623.808594 607.117188 618.882812 613.667969 C 614.46875 619.761719 609.378906 625.433594 603.367188 629.992188 C 598.339844 633.710938 592.425781 636.664062 586.058594 636.71875 C 581.328125 636.886719 576.738281 635.1875 572.800781 632.675781 C 572.554688 632.703125 572.054688 632.761719 571.804688 632.789062 C 571.839844 633.03125 571.914062 633.515625 571.953125 633.757812 C 570.960938 649.851562 569.5625 665.90625 567.945312 681.945312 C 587.183594 670.332031 606.457031 658.773438 625.863281 647.441406 C 635.589844 641.917969 645.332031 636.375 654.503906 629.953125 C 663.355469 623.859375 671.757812 617.140625 679.832031 610.058594 C 685.265625 605.277344 690.453125 600.226562 695.71875 595.265625 C 698.507812 592.0625 701.578125 589.113281 704.480469 586.015625 C 706.660156 584.144531 708.40625 581.867188 710.34375 579.761719 C 715.417969 574.523438 720.085938 568.917969 724.953125 563.488281 C 733.015625 554.367188 740.621094 544.863281 748.441406 535.535156 C 749.929688 533.558594 751.496094 531.632812 753.183594 529.816406 C 752.207031 527.671875 751.945312 525.335938 751.300781 523.101562 C 750.003906 519.347656 749.5 515.386719 748.25 511.628906 C 742.976562 491.125 737.710938 470.617188 732.5 450.09375 C 729.222656 436.574219 725.527344 423.140625 722.746094 409.503906 C 720.960938 406.421875 717.710938 404.457031 714.546875 403.007812 C 714.984375 406.105469 714.464844 409.375 712.78125 412.042969 C 709.847656 416.835938 705.007812 420.097656 700.03125 422.484375 C 695 424.859375 689.535156 426.214844 684.03125 426.910156 C 685.640625 419.074219 687.875 411.210938 692.253906 404.4375 C 693.339844 402.71875 694.765625 401.261719 696.179688 399.8125 C 694.355469 398.851562 692.226562 398.953125 690.265625 398.496094 C 687.621094 398.089844 685.078125 397.148438 682.40625 396.960938 C 681.722656 401.664062 678.75 405.722656 675.046875 408.566406 C 668.363281 413.710938 659.949219 416.003906 651.675781 416.859375 C 645.855469 417.511719 639.980469 417.222656 634.175781 416.585938 C 637.652344 408.953125 641.949219 401.648438 647.3125 395.183594 C 650.03125 392.027344 652.949219 388.992188 656.410156 386.636719 C 653.917969 384.960938 651.171875 383.71875 648.652344 382.097656 C 640.84375 377.414062 633.453125 372.046875 626.515625 366.152344 C 624.425781 364.359375 622.300781 362.585938 620.445312 360.550781 C 616.546875 363.84375 611.5 365.71875 606.417969 365.894531 C 602.59375 365.710938 598.671875 364.871094 595.484375 362.65625 C 587.960938 357.585938 583.4375 349.335938 580.25 341.0625 C 577.175781 332.273438 575.601562 323.003906 575.167969 313.714844 C 574.917969 304.964844 575.226562 296.128906 576.96875 287.523438 C 585.277344 290.859375 593.183594 295.101562 600.914062 299.585938 C 608.21875 304.082031 615.410156 308.921875 621.523438 314.984375 C 625.144531 318.347656 628.304688 322.242188 630.726562 326.558594 C 634.304688 332.976562 634.972656 341.1875 631.542969 347.8125 C 629.84375 350.914062 627.683594 353.753906 625.285156 356.34375 C 628.082031 359.261719 631.449219 361.523438 634.636719 363.984375 C 636.542969 365.121094 638.441406 366.277344 640.257812 367.570312 C 640.496094 367.582031 640.972656 367.613281 641.207031 367.625 C 639.960938 359.414062 642.539062 351.179688 645.925781 343.789062 C 648.96875 346.65625 652.144531 349.433594 654.664062 352.796875 C 658.269531 357.46875 661.664062 362.820312 661.894531 368.886719 C 662.054688 371.527344 661.035156 374.027344 659.785156 376.292969 C 666.347656 378.542969 672.949219 380.742188 679.746094 382.183594 C 675.9375 372.96875 675.589844 362.6875 677.183594 352.945312 C 684.53125 356.519531 691.792969 360.554688 697.730469 366.257812 C 701.589844 370.003906 705.089844 374.65625 705.703125 380.160156 C 706.027344 382.515625 705.5 384.863281 704.945312 387.140625 C 709.472656 387.503906 713.964844 388.257812 718.515625 388.386719 C 717.46875 378.574219 715.554688 368.875 714.4375 359.066406 C 713.660156 353.167969 712.613281 347.289062 711.0625 341.546875 C 707.722656 344.253906 703.742188 346.261719 699.445312 346.78125 C 690.84375 348.066406 682.21875 344.875 675.128906 340.1875 C 672.425781 338.269531 669.820312 336.210938 667.304688 334.066406 C 661.652344 328.847656 656.878906 322.757812 652.757812 316.28125 C 663.121094 313.519531 673.78125 311.398438 684.554688 311.46875 C 690.410156 311.460938 696.261719 312.394531 701.769531 314.375 C 698.449219 307.984375 694.40625 302.007812 690.667969 295.855469 C 687.496094 299.074219 684.101562 302.171875 679.96875 304.097656 C 674.445312 306.648438 668.222656 307.75 662.171875 307.144531 C 650.710938 305.839844 640.085938 300.367188 631.304688 293.058594 C 624.816406 288.039062 619.335938 281.859375 614.304688 275.417969 C 611.90625 272.144531 609.320312 268.941406 607.5625 265.253906 C 618.046875 262.515625 628.703125 260.253906 639.523438 259.398438 C 643.910156 258.863281 648.347656 258.769531 652.769531 258.957031 C 655.140625 258.867188 657.476562 259.453125 659.851562 259.253906 C 658.667969 258.070312 657.410156 256.980469 656.1875 255.847656 C 650.097656 250.808594 643.871094 245.902344 637.234375 241.589844 C 632.664062 243.832031 627.339844 244.890625 622.351562 243.5 C 614.949219 241.535156 609.347656 235.601562 605.578125 229.1875 C 602.941406 224.960938 601.351562 220.214844 599.804688 215.515625 C 597.277344 206.972656 596.488281 198.011719 596.605469 189.128906 C 604.929688 191.222656 612.910156 194.550781 620.539062 198.445312 C 626.929688 201.9375 633.207031 206.003906 637.859375 211.703125 C 641.378906 215.933594 643.710938 221.386719 643.371094 226.953125 C 643.203125 230.566406 641.964844 234.023438 640.398438 237.246094 C 643.351562 238.074219 645.914062 239.828125 648.785156 240.867188 C 644.554688 231.355469 644.652344 220.542969 646.707031 210.5 C 650.128906 194.097656 658.246094 178.980469 668.433594 165.796875 C 675.210938 174.769531 681.269531 184.316406 686.089844 194.484375 C 690.335938 203.632812 693.835938 213.386719 694.179688 223.566406 C 694.371094 230.105469 693.007812 236.902344 689.203125 242.328125 C 684.648438 249.054688 677.25 253.378906 669.632812 255.789062 C 671.746094 257.421875 673.414062 259.527344 675.503906 261.1875 C 676.742188 262.199219 677.753906 263.445312 678.882812 264.585938 C 683.925781 269.074219 688.359375 274.207031 692.59375 279.453125 C 694.109375 280.941406 695.273438 282.746094 696.851562 284.179688 C 700.71875 267.960938 710.9375 253.921875 723.148438 242.878906 C 727.992188 252.296875 731.84375 262.273438 734.058594 272.648438 C 735.503906 279.730469 736.3125 287.140625 734.785156 294.28125 C 733.871094 298.515625 732.046875 302.617188 729.125 305.847656 C 725.695312 309.671875 720.949219 312.09375 716.074219 313.503906 C 719.394531 320.519531 721.515625 328.011719 723.335938 335.535156 C 723.484375 335.402344 723.789062 335.132812 723.941406 334.996094 C 728.753906 327.355469 735.429688 321.046875 742.660156 315.710938 C 747.941406 311.753906 753.722656 308.558594 759.589844 305.566406 C 761 313.496094 761.523438 321.582031 761.417969 329.636719 C 761.207031 337.695312 760.332031 345.878906 757.421875 353.453125 C 755.164062 359.519531 751.238281 365.277344 745.421875 368.394531 C 741.039062 370.929688 735.851562 371.515625 730.875 371.402344 C 733.058594 380.773438 734.660156 390.265625 736.675781 399.667969 C 739.917969 416.421875 743.90625 433.027344 748.328125 449.5 C 749.628906 453.59375 750.5625 457.789062 751.945312 461.863281 C 752.777344 465.875 754.496094 469.636719 755.382812 473.640625 C 756.480469 477.320312 757.824219 480.921875 759.011719 484.578125 C 760.445312 490.191406 762.625 495.589844 764.496094 501.078125 C 765.785156 504.476562 766.746094 508.023438 768.535156 511.21875 C 768.789062 510.988281 769.054688 510.765625 769.335938 510.539062 C 769.824219 507.246094 771.480469 504.304688 772.523438 501.175781 C 775.476562 494.09375 779.359375 487.425781 783.742188 481.136719 C 787.4375 475.753906 789.972656 469.71875 792.789062 463.859375 C 794.660156 459.125 796.394531 454.328125 797.90625 449.460938 C 798.914062 445.273438 800.21875 441.164062 801.214844 436.976562 C 801.765625 434.414062 802.738281 431.957031 803.179688 429.371094 C 803.855469 425.910156 804.753906 422.496094 805.757812 419.113281 C 806.886719 413.5 808.820312 408.089844 810.101562 402.507812 C 813.753906 387.160156 815.496094 371.421875 816.359375 355.691406 C 817.90625 341.722656 820.421875 327.882812 823.003906 314.074219 C 818.03125 316.390625 812.601562 317.753906 807.101562 317.589844 C 800.492188 317.28125 793.945312 315.308594 788.414062 311.648438 C 776.867188 304.289062 768.867188 292.539062 763.285156 280.253906 C 759.109375 270.863281 756.257812 260.925781 754.363281 250.835938 C 761.71875 251.289062 769.003906 252.535156 776.214844 254.023438 C 786.996094 256.105469 797.613281 259.363281 807.433594 264.332031 C 814.632812 268.121094 821.535156 273.042969 826.003906 279.976562 C 827.429688 282.050781 828.210938 284.457031 829.246094 286.734375 C 829.386719 286.511719 829.664062 286.074219 829.800781 285.855469 C 831.007812 280.96875 832.484375 276.160156 833.832031 271.308594 C 827.296875 271.875 820.484375 269.808594 815.59375 265.398438 C 809.449219 260.214844 806.210938 252.429688 804.539062 244.746094 C 802.070312 232.710938 803.234375 220.199219 806.21875 208.367188 C 810.992188 211.417969 815.972656 214.191406 820.449219 217.695312 C 829.636719 224.257812 838.238281 232.296875 843.164062 242.628906 C 845.640625 236.652344 847.703125 230.511719 850.132812 224.511719 C 850.855469 222.902344 851.484375 221.242188 851.929688 219.527344 C 850.582031 220.605469 849.511719 222.199219 847.71875 222.53125 C 841.503906 224.203125 834.605469 224.082031 828.757812 221.214844 C 822.296875 218.28125 817.40625 212.703125 814.023438 206.597656 C 809.511719 198.605469 807.328125 189.515625 806.3125 180.457031 C 804.898438 167.730469 806.164062 154.84375 808.855469 142.371094 C 819.554688 147.914062 829.832031 154.355469 839.085938 162.09375 C 846.382812 168.253906 853.152344 175.328125 857.535156 183.890625 C 858.800781 186.574219 859.640625 189.429688 860.589844 192.234375 C 862.710938 189.917969 864.675781 187.457031 867.011719 185.339844 C 869.101562 183.589844 869.699219 180.820312 871.140625 178.609375 C 872.679688 176.265625 873.652344 173.617188 874.980469 171.15625 C 869.707031 170.597656 864.417969 169.511719 859.59375 167.246094 C 852.171875 163.691406 846.875 156.386719 845.265625 148.371094 C 842.964844 136.847656 845.074219 125.019531 848.09375 113.828125 C 850.84375 103.792969 854.730469 94.109375 858.953125 84.617188 C 861.550781 79.113281 864.199219 73.628906 867.230469 68.351562 C 870.796875 71.339844 873.769531 75 876.839844 78.492188 C 885.324219 88.5625 892.519531 99.777344 897.714844 111.894531 C 902.003906 122.039062 904.992188 133 904.609375 144.097656 C 904.394531 149.800781 903.054688 155.59375 899.933594 160.433594 C 897.46875 164.726562 893.234375 167.699219 888.734375 169.550781 C 886.898438 170.289062 884.859375 170.304688 883.074219 171.140625 C 881.953125 172.074219 881.480469 173.53125 881.03125 174.867188 C 893.863281 167.84375 907.96875 163.128906 922.453125 161.042969 C 921.078125 169.167969 919.523438 177.277344 917.175781 185.1875 C 914.046875 195.859375 909.976562 206.410156 903.53125 215.554688 C 899.785156 220.851562 895.089844 225.667969 889.253906 228.632812 C 883.1875 231.867188 875.9375 232.476562 869.289062 230.964844 C 865.605469 230.097656 861.933594 228.925781 858.695312 226.941406 C 855.289062 236.988281 851.664062 246.957031 848.550781 257.089844 C 841.851562 278.191406 835.632812 299.46875 830.734375 321.0625 C 828.582031 331.261719 826.167969 341.558594 826.378906 352.046875 C 826.808594 353.390625 827.152344 355.914062 829.164062 355.25 C 837.425781 351.921875 844.707031 346.652344 851.976562 341.589844 C 854.835938 339.394531 857.664062 337.152344 860.539062 334.972656 C 857.972656 333.796875 855.230469 332.929688 853.011719 331.117188 C 846.886719 326.625 844.085938 318.890625 843.808594 311.511719 C 843.296875 299.339844 847.597656 287.496094 853.363281 276.957031 C 856.40625 271.390625 860.042969 266.148438 864.042969 261.222656 C 864.109375 261.054688 864.242188 260.722656 864.304688 260.5625 C 869.582031 267.671875 873.957031 275.433594 877.710938 283.445312 C 879.109375 287.027344 880.902344 290.472656 881.75 294.253906 C 883.207031 298.785156 884.074219 303.5 884.285156 308.253906 C 886.71875 305.832031 888.804688 303.050781 891.507812 300.898438 C 896.40625 296.816406 902.097656 293.460938 908.382812 292.113281 C 909.238281 291.882812 910.085938 291.597656 910.957031 291.335938 C 908.648438 289.183594 906.152344 287.199219 904.296875 284.613281 C 899.285156 278.296875 897.96875 269.851562 898.769531 262.011719 C 900.3125 250.628906 905.859375 240.171875 912.875 231.222656 C 920.398438 221.824219 929.355469 213.542969 939.359375 206.824219 C 943.085938 218.378906 945.683594 230.34375 946.71875 242.453125 C 947.121094 246.738281 947.007812 251.042969 947.042969 255.339844 C 959.210938 247.957031 973.59375 245.207031 987.675781 244.871094 C 985.3125 252.335938 982.636719 259.726562 979.097656 266.714844 C 974.980469 274.539062 970.140625 282.316406 962.988281 287.714844 C 958.308594 291.242188 952.316406 293.300781 946.445312 292.394531 C 943.453125 291.988281 940.554688 291 937.914062 289.574219 C 932.71875 292.875 926.871094 294.921875 920.996094 296.59375 C 922.894531 297.234375 924.921875 297.113281 926.894531 297.386719 C 937.507812 298.769531 947.605469 302.765625 956.957031 307.863281 C 963.09375 311.3125 968.992188 315.214844 974.433594 319.699219 C 964.882812 326.316406 954.628906 331.914062 943.9375 336.457031 C 937.925781 338.734375 931.871094 341.039062 925.511719 342.183594 C 919.332031 343.472656 912.90625 343.546875 906.683594 342.5 C 900.253906 341.1875 894.382812 337.492188 890.394531 332.285156 C 887.929688 329.390625 886.402344 325.882812 884.867188 322.449219 C 878.847656 329.351562 872.152344 335.617188 865.210938 341.570312 C 865.265625 341.820312 865.375 342.316406 865.421875 342.566406 C 870.566406 343.589844 875.457031 345.75 879.644531 348.90625 C 884.109375 352.039062 888.15625 355.777344 891.488281 360.101562 C 892.3125 361.019531 893.09375 361.976562 893.886719 362.933594 C 883.835938 366.453125 873.15625 369.179688 862.425781 368.1875 C 858.371094 367.625 854.199219 366.523438 851.121094 363.675781 C 848.921875 362.019531 847.75 359.503906 846.53125 357.132812 C 838.867188 363.414062 830.980469 369.417969 823.078125 375.394531 C 823.15625 376.050781 823.277344 376.707031 823.367188 377.363281 C 823.703125 385.386719 823.351562 393.425781 822.507812 401.410156 C 821.839844 406.78125 821.371094 412.199219 820.199219 417.492188 C 820.265625 417.707031 820.410156 418.136719 820.480469 418.351562 C 824.21875 417.109375 828.066406 416.222656 831.785156 414.90625 C 836.136719 413.867188 840.300781 412.175781 844.671875 411.203125 C 847.566406 410.21875 850.472656 409.261719 853.457031 408.546875 C 858.078125 406.960938 862.835938 405.824219 867.476562 404.28125 C 870.746094 403.628906 873.820312 402.285156 877.046875 401.457031 C 880.617188 400.605469 884.023438 399.171875 887.632812 398.433594 C 890.640625 397.410156 893.667969 396.4375 896.765625 395.675781 C 901.203125 394.09375 905.824219 393.117188 910.28125 391.5625 C 922.414062 388.839844 933.300781 382.296875 942.984375 374.675781 C 950.128906 369.023438 956.523438 362.496094 962.566406 355.691406 C 968.902344 348.492188 974.371094 340.597656 980.023438 332.867188 C 990.25 318.9375 1000.539062 305.058594 1010.882812 291.21875 C 1018.867188 280.78125 1026.65625 270.183594 1034.785156 259.855469 C 1035.222656 246.167969 1035.484375 232.472656 1035.824219 218.777344 C 1031.753906 220.964844 1026.882812 221.84375 1022.40625 220.46875 C 1014.257812 218.066406 1008.152344 211.5 1003.648438 204.582031 C 998.714844 196.992188 995.605469 188.351562 993.589844 179.570312 C 993.71875 179.621094 993.976562 179.722656 994.109375 179.78125 C 1003 180.421875 1011.847656 182.21875 1020.238281 185.261719 C 1025.835938 187.675781 1031.746094 190.234375 1035.648438 195.128906 C 1035.890625 195.203125 1036.378906 195.34375 1036.625 195.417969 C 1036.613281 188.546875 1037.171875 181.6875 1037.140625 174.8125 C 1035.523438 176.453125 1034.257812 178.394531 1032.660156 180.035156 C 1031.625 181.265625 1029.882812 181.222656 1028.433594 181.398438 C 1021.332031 182.097656 1013.894531 180.386719 1008.148438 176.078125 C 1000.09375 170.253906 995.210938 161.027344 992.460938 151.671875 C 987.804688 134.925781 988.898438 117.128906 992.492188 100.289062 C 1001.183594 105.167969 1009.542969 110.660156 1017.242188 117.007812 C 1025.472656 123.832031 1033.167969 131.625 1038.273438 141.113281 L 1038.789062 140.914062 C 1038.792969 138.25 1039.027344 135.597656 1039.195312 132.945312 C 1039.371094 131.582031 1038.464844 130.457031 1037.9375 129.289062 C 1032.042969 117.199219 1025.980469 105.1875 1019.683594 93.304688 C 1019.425781 93.3125 1018.910156 93.335938 1018.648438 93.347656 C 1014.09375 93.394531 1009.519531 91.941406 1005.964844 89.0625 C 1002.472656 86.246094 1000.152344 82.269531 998.488281 78.164062 C 995.582031 69.699219 995.371094 60.539062 996.699219 51.753906 C 997.808594 43.28125 1000.59375 35.144531 1003.894531 27.300781 C 1014.777344 37.09375 1025.113281 48.191406 1030.792969 61.890625 C 1032.757812 67.246094 1033.816406 73.183594 1032.277344 78.789062 C 1030.949219 84.050781 1027.207031 88.285156 1023.011719 91.535156 C 1028.503906 99.382812 1034.351562 107.007812 1039.359375 115.191406 C 1041.425781 113.714844 1041.921875 111.066406 1042.699219 108.808594 C 1046.992188 93.320312 1049.730469 77.429688 1054.574219 62.097656 C 1052.515625 59.785156 1050.453125 57.34375 1049.578125 54.308594 C 1047.773438 49.988281 1048.105469 45.113281 1049.386719 40.699219 C 1051.664062 33.570312 1056.128906 27.335938 1061.457031 22.15625 C 1069.609375 14.363281 1079.378906 8.226562 1089.929688 4.242188 C 1090.671875 14.875 1090.609375 25.640625 1088.582031 36.140625 C 1087.078125 43.429688 1084.695312 50.839844 1079.707031 56.546875 C 1076.050781 60.765625 1070.707031 63.460938 1065.128906 63.800781 C 1063.296875 64.007812 1061.46875 63.675781 1059.65625 63.925781 C 1058.941406 65.140625 1058.605469 66.523438 1058.148438 67.835938 C 1057.296875 70.527344 1056.179688 73.15625 1055.785156 75.964844 C 1062.644531 70.316406 1072.039062 69.105469 1080.601562 70.324219 C 1086.722656 71.117188 1092.679688 72.992188 1098.300781 75.519531 C 1092.164062 82.503906 1085.304688 89.039062 1077.152344 93.625 C 1072.363281 96.261719 1066.765625 98.195312 1061.253906 97.085938 C 1057.605469 96.414062 1054.511719 94.085938 1052.152344 91.320312 C 1051.976562 91.398438 1051.621094 91.558594 1051.441406 91.640625 C 1049.238281 102.351562 1047.222656 113.148438 1046.371094 124.0625 C 1048.695312 121.597656 1050.863281 118.960938 1053.589844 116.910156 C 1062.96875 109.457031 1074.753906 105.746094 1086.5 104.1875 C 1097.21875 102.777344 1108.121094 103.128906 1118.808594 104.664062 C 1114.882812 113.230469 1110.105469 121.410156 1104.785156 129.191406 C 1102.15625 132.839844 1099.632812 136.609375 1096.445312 139.796875 C 1101.769531 150.722656 1105.636719 162.652344 1105.640625 174.914062 C 1112.1875 168.441406 1118.175781 161.390625 1125.003906 155.195312 C 1123.742188 150.785156 1123.984375 145.929688 1125.941406 141.753906 C 1129.101562 134.667969 1135.496094 129.625 1142.152344 125.984375 C 1152.636719 120.265625 1164.605469 117.867188 1176.4375 117.191406 C 1177.652344 117.140625 1178.882812 117.101562 1180.117188 117.0625 C 1177.398438 125.375 1174.449219 133.660156 1170.207031 141.332031 C 1166.761719 147.570312 1162.753906 153.660156 1157.304688 158.335938 C 1153.703125 161.386719 1149.453125 163.945312 1144.691406 164.535156 C 1139.574219 165.382812 1134.40625 163.898438 1129.855469 161.632812 C 1129.738281 161.40625 1129.503906 160.957031 1129.390625 160.730469 C 1127.5625 160.996094 1126.492188 162.5625 1125.28125 163.757812 C 1123.917969 165.152344 1122.46875 166.476562 1121.402344 168.113281 C 1128.925781 166.597656 1136.535156 169.3125 1142.820312 173.335938 C 1148.957031 177.324219 1154.132812 182.652344 1158.476562 188.511719 C 1149.363281 191.730469 1139.765625 194.160156 1130.039062 193.945312 C 1124.699219 193.761719 1119.003906 192.519531 1115.070312 188.660156 C 1112.425781 186.1875 1111.230469 182.660156 1110.378906 179.246094 C 1096.953125 193.339844 1083.996094 207.894531 1071.816406 223.082031 C 1065.996094 230.410156 1060.355469 237.890625 1055.210938 245.710938 C 1041.457031 267.402344 1027.851562 289.191406 1013.554688 310.527344 C 1013.558594 310.71875 1013.578125 311.097656 1013.578125 311.285156 C 1026.546875 307.082031 1039.292969 302.171875 1051.683594 296.492188 C 1048.183594 293.320312 1045.132812 289.46875 1043.835938 284.863281 C 1041.574219 277.285156 1043.492188 269.117188 1047.015625 262.242188 C 1051.292969 254.050781 1057.699219 247.144531 1064.84375 241.363281 C 1069.503906 237.644531 1074.453125 234.265625 1079.71875 231.457031 C 1081.5 240.183594 1082.457031 249.097656 1082.425781 258.007812 C 1082.355469 263.800781 1081.832031 269.625 1080.355469 275.238281 C 1079.6875 277.9375 1078.546875 280.480469 1077.609375 283.085938 C 1081.007812 281.242188 1084.222656 279.089844 1087.457031 276.972656 C 1089.082031 275.886719 1090.816406 274.871094 1092.078125 273.328125 C 1093.417969 271.722656 1094.960938 270.261719 1096.769531 269.175781 C 1098.089844 268.28125 1099.671875 267.84375 1100.960938 266.875 C 1104.285156 264.183594 1107.226562 261.074219 1110.230469 258.035156 C 1107.84375 254.753906 1106.296875 250.773438 1106.652344 246.667969 C 1107.136719 238.914062 1111.984375 232.28125 1117.371094 227.035156 C 1123.175781 221.527344 1130.054688 217.171875 1137.417969 214.054688 C 1139.417969 212.882812 1141.695312 212.296875 1143.832031 211.398438 C 1144.3125 219.597656 1143.679688 227.878906 1142.101562 235.9375 C 1141.234375 240.078125 1140.074219 244.179688 1138.136719 247.957031 C 1135.960938 252.933594 1132.300781 257.539062 1127.203125 259.707031 C 1124.425781 261.117188 1121.261719 261.121094 1118.242188 261.351562 C 1116.652344 262.414062 1115.246094 263.710938 1113.746094 264.878906 C 1113.828125 265.007812 1113.996094 265.269531 1114.074219 265.402344 C 1122.007812 265.75 1129.691406 268.269531 1136.832031 271.625 C 1130.664062 278.230469 1123.847656 284.402344 1115.855469 288.726562 C 1110.871094 291.425781 1105.015625 293.40625 1099.320312 292.140625 C 1094.929688 291.273438 1091.414062 288.0625 1089.039062 284.414062 C 1085.484375 286.457031 1082.398438 289.207031 1079 291.484375 C 1073.796875 295.164062 1068.519531 298.773438 1062.847656 301.707031 C 1063.25 302.914062 1063.699219 304.109375 1064.179688 305.300781 C 1067.410156 308.894531 1072.085938 310.71875 1076.683594 311.835938 C 1088.886719 314.632812 1101.53125 314.113281 1113.9375 313.417969 C 1116.867188 313.441406 1119.46875 311.875 1122.347656 311.507812 C 1127.800781 310.011719 1133.199219 308.023438 1137.960938 304.902344 C 1139.894531 303.675781 1141.6875 302.242188 1143.628906 301 C 1142 296.253906 1141.871094 290.859375 1144.011719 286.246094 C 1146.867188 279.363281 1152.714844 274.238281 1158.894531 270.347656 C 1170.046875 263.386719 1183.121094 260.246094 1196.105469 259.054688 C 1193.976562 268.308594 1191.007812 277.386719 1186.898438 285.953125 C 1183.601562 292.449219 1179.652344 298.8125 1174.003906 303.53125 C 1169.867188 307.003906 1164.519531 309.238281 1159.074219 309.097656 C 1155.785156 309.066406 1152.554688 308.195312 1149.554688 306.902344 C 1144.511719 309.238281 1139.246094 311.03125 1134.019531 312.898438 C 1134.167969 313.03125 1134.457031 313.289062 1134.601562 313.421875 C 1143.945312 317.109375 1151.445312 324.335938 1157.375 332.285156 C 1147.957031 335.472656 1138.089844 338.058594 1128.070312 337.632812 C 1122.976562 337.363281 1117.589844 336.035156 1113.875 332.332031 C 1110.734375 329.292969 1109.453125 324.898438 1109.03125 320.664062 C 1105.683594 321.355469 1102.355469 322.109375 1098.996094 322.71875 C 1106.417969 330.09375 1110.746094 340.035156 1112.722656 350.203125 C 1113.984375 356.230469 1114.441406 362.398438 1114.492188 368.550781 C 1106.140625 366.222656 1097.949219 363.222656 1090.269531 359.179688 C 1083.746094 355.632812 1077.355469 351.390625 1072.84375 345.394531 C 1069.972656 341.589844 1068.089844 336.9375 1068.199219 332.128906 C 1068.234375 328.117188 1069.558594 324.253906 1071.320312 320.6875 C 1067.199219 319.371094 1063.226562 317.539062 1059.75 314.953125 C 1056.796875 312.683594 1053.15625 311.515625 1049.496094 311.101562 C 1044.765625 310.679688 1040.148438 312.300781 1035.933594 314.265625 C 1026.300781 319.164062 1017.121094 324.882812 1007.855469 330.425781 C 1001.78125 334.246094 995.558594 337.859375 989.804688 342.164062 C 986.484375 345.070312 984.328125 349.015625 981.742188 352.542969 C 976.023438 360.992188 970.351562 369.484375 964.074219 377.535156 C 960.105469 382.570312 956.03125 387.5625 951.300781 391.898438 C 947.355469 395.644531 943.03125 399.179688 937.894531 401.140625 C 921.101562 407.726562 903.136719 410.359375 885.945312 415.621094 C 882.21875 417.039062 878.308594 417.824219 874.574219 419.183594 C 871.09375 420.371094 867.589844 421.492188 864.136719 422.753906 C 856.359375 424.945312 848.800781 427.851562 841.195312 430.574219 C 837.171875 432.476562 832.835938 433.640625 828.921875 435.761719 C 822.539062 438.882812 816.617188 443.585938 813.429688 450.0625 C 811.777344 453.347656 811.59375 457.082031 810.484375 460.546875 C 806.574219 474.09375 802.078125 487.476562 796.765625 500.539062 C 792.355469 510.929688 786.238281 520.488281 779.738281 529.675781 C 771.015625 541.917969 761.363281 553.460938 751.402344 564.699219 C 739.984375 577.515625 728.027344 589.839844 715.683594 601.761719 C 722.167969 604.183594 729.214844 604.394531 736.0625 604.292969 C 752.46875 603.660156 768.582031 600.058594 784.421875 595.964844 C 791.386719 594 798.378906 592.09375 805.242188 589.769531 C 813.539062 587.167969 821.84375 584.523438 829.894531 581.21875 C 833.628906 579.753906 837.453125 578.4375 840.828125 576.21875 C 851.164062 569.808594 860.519531 561.96875 869.75 554.085938 C 876.316406 548.222656 883.078125 542.585938 889.664062 536.742188 C 884.449219 535.546875 879.285156 533.472656 875.371094 529.71875 C 868.660156 523.503906 865.527344 514.339844 864.820312 505.398438 C 863.582031 489.90625 868.152344 474.574219 874.648438 460.664062 C 875.347656 459.234375 875.921875 457.714844 876.917969 456.453125 C 881.214844 460.136719 885.015625 464.375 888.757812 468.617188 C 896.941406 478.234375 904.421875 488.855469 908.121094 501.058594 C 909.011719 504.332031 909.632812 507.703125 909.660156 511.101562 C 909.675781 513.082031 909.363281 515.046875 909.359375 517.027344 C 916.035156 510.199219 921.839844 502.566406 927.679688 495.023438 C 924.964844 494.21875 922.035156 494.214844 919.46875 492.914062 C 913.875 490.757812 909.476562 486.109375 907.097656 480.664062 C 904.160156 474.429688 903.445312 467.382812 903.800781 460.566406 C 904.480469 449.457031 907.964844 438.671875 912.828125 428.71875 C 921.09375 436.082031 928.675781 444.347656 934.449219 453.832031 C 938.113281 459.789062 940.660156 466.484375 941.265625 473.484375 C 942.425781 472.03125 943.160156 470.308594 944.042969 468.683594 C 946.226562 464.832031 948.125 460.816406 949.753906 456.699219 C 952.09375 451.460938 954.035156 446.042969 955.671875 440.542969 C 956.140625 438.765625 956.96875 437.003906 956.75 435.121094 C 951.628906 431.996094 948.769531 425.972656 948.617188 420.082031 C 948.355469 411.925781 951.640625 404.082031 956.007812 397.347656 C 962.1875 387.816406 970.621094 379.859375 979.996094 373.511719 C 980.089844 373.359375 980.277344 373.054688 980.375 372.902344 C 983.847656 383.125 986 393.847656 986.386719 404.652344 C 986.511719 412.828125 985.433594 421.53125 980.460938 428.296875 C 976.597656 433.617188 970.140625 436.417969 963.738281 437.082031 C 962.859375 442.023438 960.886719 446.65625 959.425781 451.433594 C 963.558594 449.65625 967.796875 447.925781 972.296875 447.355469 C 981.523438 446 990.964844 447.402344 999.796875 450.207031 C 1012.546875 454.359375 1024.304688 461.253906 1034.710938 469.652344 C 1025.019531 476.328125 1014.632812 482.011719 1003.792969 486.578125 C 993.898438 490.464844 983.417969 493.714844 972.671875 493.203125 C 965.789062 492.894531 958.832031 490.519531 953.75 485.757812 C 950.714844 482.976562 948.429688 479.488281 946.597656 475.824219 C 944.550781 478.585938 942.875 481.597656 940.933594 484.425781 C 938.011719 488.808594 934.980469 493.117188 931.90625 497.394531 C 931.957031 497.5625 932.054688 497.902344 932.101562 498.074219 C 937.171875 497.371094 942.261719 498.820312 946.84375 500.910156 C 954.964844 504.957031 961.746094 511.359375 967.03125 518.675781 C 961.757812 520.675781 956.285156 522.117188 950.746094 523.144531 C 944.96875 524.109375 938.996094 524.667969 933.207031 523.515625 C 929.148438 522.664062 925.050781 520.828125 922.472656 517.460938 C 921.480469 516.207031 920.757812 514.773438 920.078125 513.339844 C 917.105469 516.285156 914.78125 519.804688 912.023438 522.941406 C 898.953125 538.839844 885.15625 554.132812 870.96875 569.03125 C 866.804688 573.375 862.625 577.699219 858.3125 581.894531 C 858.453125 582.085938 858.726562 582.464844 858.859375 582.648438 C 872.5625 588.265625 887.347656 591.691406 902.214844 591.269531 C 900.488281 588.484375 898.847656 585.546875 898.300781 582.28125 C 896.816406 575.113281 899.101562 567.644531 903.136719 561.691406 C 909.535156 552.140625 919.304688 545.382812 929.539062 540.457031 C 934.257812 538.140625 939.230469 536.410156 944.21875 534.773438 C 944.121094 543.589844 943.226562 552.417969 941.351562 561.042969 C 939.695312 568.320312 937.363281 575.578125 933.261719 581.875 C 932.109375 583.671875 930.582031 585.199219 929.542969 587.066406 C 932.796875 586.230469 936.050781 585.3125 939.070312 583.804688 C 948.875 580.125 957.90625 574.648438 966.324219 568.46875 C 965.265625 563.691406 965.101562 558.503906 967.277344 553.996094 C 970.375 546.507812 976.867188 541.0625 983.695312 537.039062 C 996.320312 529.769531 1010.964844 526.949219 1025.375 526.304688 C 1023.160156 533.839844 1020.644531 541.324219 1017.15625 548.378906 C 1013.660156 556.035156 1009.273438 563.390625 1003.382812 569.449219 C 999.386719 573.359375 994.597656 576.839844 989.015625 577.933594 C 982.242188 579.410156 975.058594 577.453125 969.378906 573.667969 C 964.339844 576.851562 959.589844 580.527344 954.292969 583.300781 C 954.550781 583.53125 954.824219 583.753906 955.113281 583.984375 C 961.699219 585.660156 967.503906 589.480469 972.769531 593.660156 C 978.101562 598.0625 982.910156 603.175781 986.769531 608.921875 C 976.382812 612.269531 965.648438 615.121094 954.65625 615.136719 C 950.566406 615.101562 946.445312 614.679688 942.5625 613.347656 C 937.546875 611.789062 933.203125 608.046875 931.132812 603.191406 C 929.8125 600.292969 929.582031 597.09375 929.148438 593.984375 C 921.074219 596.183594 912.851562 597.929688 904.503906 598.652344 C 911.816406 607.722656 914.136719 619.707031 914.152344 631.105469 C 906.710938 629.046875 899.484375 626.15625 892.820312 622.269531 C 887.496094 619 882.289062 614.730469 880.097656 608.6875 C 878.9375 605.554688 879.25 602.175781 879.886719 598.976562 C 869.039062 598.273438 858.28125 596.40625 847.789062 593.609375 C 842.789062 592.183594 837.730469 590.824219 833.011719 588.613281 C 826.390625 591.800781 819.746094 594.972656 812.765625 597.292969 C 796.503906 603.351562 779.511719 607.191406 762.4375 610.105469 C 746.304688 612.792969 730.015625 614.476562 713.6875 615.363281 C 707.675781 615.566406 701.644531 616.125 695.632812 615.761719 C 693.84375 616.355469 692.8125 618.007812 691.453125 619.191406 C 685.03125 625.019531 677.808594 629.867188 670.664062 634.738281 C 653.757812 645.925781 636.269531 656.179688 618.703125 666.28125 C 601.492188 676.097656 584.136719 685.640625 566.65625 694.957031 C 556.320312 700.363281 546.101562 706.101562 535.097656 710.058594 C 529.703125 712.539062 523.976562 714.191406 518.417969 716.261719 C 513.714844 718.097656 508.777344 719.171875 504.050781 720.9375 C 487.421875 726.09375 470.609375 730.644531 453.71875 734.886719 C 456.59375 736.667969 459.785156 737.871094 462.78125 739.4375 C 466.1875 740.976562 469.371094 742.960938 472.753906 744.566406 C 474.5625 740 478.738281 736.722656 483.457031 735.554688 C 491.777344 733.46875 500.542969 735.480469 508.238281 738.84375 C 508.703125 739.125 510.203125 739.496094 509.339844 740.222656 C 503.914062 745.859375 497.714844 750.972656 490.460938 754.050781 C 492.242188 754.921875 493.925781 755.964844 495.667969 756.90625 C 495.777344 757.097656 496 757.480469 496.105469 757.667969 C 500.089844 756.304688 504.453125 755.804688 508.550781 756.972656 C 515.949219 759.085938 522.253906 763.957031 527.21875 769.726562 C 531.667969 774.929688 535.410156 780.78125 538.019531 787.117188 C 529 788.308594 519.816406 788.988281 510.777344 787.65625 C 506.988281 787.089844 503.191406 786.199219 499.761719 784.460938 C 496.339844 782.894531 493.222656 780.414062 491.433594 777.054688 C 489.054688 772.984375 489.0625 768.03125 489.800781 763.5 C 490.058594 763.121094 490.324219 762.746094 490.59375 762.378906 C 490.433594 762.140625 490.109375 761.664062 489.945312 761.425781 C 486.714844 759.847656 483.726562 757.824219 480.546875 756.160156 C 476.023438 753.585938 471.402344 751.1875 466.792969 748.78125 C 466.652344 748.769531 466.367188 748.75 466.226562 748.742188 C 468.378906 756.058594 466.515625 763.851562 463.597656 770.683594 C 462.710938 772.859375 461.535156 774.898438 460.335938 776.914062 C 456.164062 772.378906 452.304688 767.484375 449.507812 761.964844 C 447.648438 758.058594 446.136719 753.714844 446.75 749.324219 C 447.128906 746.46875 448.65625 743.867188 450.78125 741.953125 C 450.65625 741.703125 450.410156 741.21875 450.285156 740.976562 C 439.566406 736.273438 428.574219 732.105469 417.226562 729.179688 C 412.007812 728.074219 406.898438 726.496094 401.59375 725.828125 C 382.777344 723.269531 363.707031 724.71875 344.898438 726.617188 C 333.582031 727.949219 322.296875 729.585938 311.074219 731.554688 C 310.328125 731.710938 309.621094 731.976562 308.925781 732.246094 C 310.554688 732.953125 312.285156 733.347656 314 733.8125 C 308.558594 741.449219 302.078125 748.976562 293.242188 752.699219 C 301.746094 757.742188 310.324219 762.65625 318.722656 767.875 C 320.800781 765.738281 323.90625 765.144531 326.765625 764.9375 C 332.445312 764.585938 337.8125 767.832031 341.273438 772.152344 C 346.398438 778.570312 348.902344 786.695312 349.90625 794.75 C 350.53125 799.871094 350.632812 805.066406 350.136719 810.207031 C 350.121094 810.863281 349.324219 810.359375 349.007812 810.304688 C 340.238281 806.898438 331.5625 802.792969 324.296875 796.71875 C 319.117188 792.460938 314.664062 786.523438 314.550781 779.558594 C 314.707031 776.964844 315.296875 774.398438 316.550781 772.105469 C 316.5 771.96875 316.382812 771.699219 316.324219 771.558594 C 312.789062 769.71875 309.484375 767.425781 305.8125 765.863281 C 308.488281 773.234375 306.714844 781.328125 303.808594 788.347656 C 302.855469 790.71875 301.613281 792.957031 300.320312 795.15625 C 296.539062 791.054688 292.996094 786.679688 290.3125 781.777344 C 288.078125 777.65625 286.242188 773.027344 286.636719 768.261719 C 286.90625 764.714844 288.894531 761.460938 291.75 759.382812 C 291.679688 759.234375 291.539062 758.925781 291.464844 758.773438 C 283.875 755.621094 276.160156 752.753906 268.246094 750.527344 C 260.230469 748.402344 252.082031 746.363281 243.742188 746.230469 C 241.941406 746.191406 240.148438 746.191406 238.347656 746.1875 C 218.976562 746.875 200.011719 751.871094 181.914062 758.574219 C 159.492188 766.460938 138.195312 777.214844 117.507812 788.855469 C 98.8125 799.527344 80.695312 811.207031 63.3125 823.90625 C 51.828125 832.453125 40.363281 841.1875 30.414062 851.535156 C 28.191406 853.914062 26.125 856.550781 25.027344 859.648438 C 23.386719 863.941406 23.097656 868.59375 23.28125 873.144531 C 24.171875 884.222656 27.914062 894.871094 32.675781 904.835938 C 37.34375 914.648438 43.046875 924.003906 49.925781 932.433594 C 61.683594 947.742188 73.523438 962.984375 85.296875 978.285156 C 116.113281 1018.332031 146.195312 1058.964844 176.597656 1099.332031 C 191.875 1119.617188 207.148438 1139.90625 222.425781 1160.195312 C 230.0625 1170.34375 237.699219 1180.484375 245.339844 1190.628906 C 247.128906 1193.007812 249.355469 1195.367188 250.84375 1197.9375 C 252.839844 1201.386719 250.769531 1201.25 247.402344 1202.734375 C 241.625 1205.28125 235.835938 1207.796875 230.023438 1210.261719 C 197.4375 1224.078125 164.066406 1235.820312 130.972656 1248.191406 C 125.726562 1250.152344 120.632812 1250.996094 116.859375 1246.078125 C 115.351562 1244.113281 114.476562 1241.746094 113.621094 1239.421875 C 109.457031 1228.039062 105.996094 1215.9375 100.949219 1204.921875 C 96.054688 1194.238281 93.96875 1182.488281 89.789062 1171.457031 C 85.992188 1160.070312 81.546875 1149.085938 77.855469 1137.621094 C 62.519531 1089.949219 44.800781 1042.992188 26.449219 996.386719 C 20.671875 981.710938 15.507812 966.71875 7.84375 952.890625 C 3.054688 944.253906 -2.054688 935.796875 -7.476562 927.542969 C -12.636719 919.6875 -15.019531 911.777344 -17.609375 902.6875 C -22.347656 886.039062 -25.757812 869.007812 -26.757812 851.699219 C -27.433594 839.949219 -18.777344 830.617188 -12.460938 821.273438 C -20.101562 807.019531 -28.273438 793.039062 -36.023438 778.84375 C -36.164062 778.910156 -36.441406 779.050781 -36.582031 779.121094 C -36.148438 780.25 -49.351562 771.199219 -54.988281 755.828125 C -57.851562 749.410156 -59.855469 742.648438 -62.488281 736.132812 C -63.648438 733.589844 -64.761719 730.984375 -65.445312 728.265625 C -65.886719 723.6875 -66.183594 719.082031 -66.921875 714.535156 C -67.207031 712.371094 -67.808594 710.253906 -67.960938 708.070312 C -68.765625 703.882812 -70.140625 699.855469 -71.445312 695.808594 C -71.839844 693.007812 -73.453125 690.640625 -74.308594 687.984375 C -76.238281 682.503906 -78.515625 677.152344 -81.121094 671.964844 C -83.894531 665.597656 -86.976562 659.363281 -90.183594 653.199219 C -92.078125 652.96875 -93.984375 652.78125 -95.828125 652.296875 C -97.308594 647.976562 -99.375 643.90625 -100.882812 639.601562 C -97.601562 640.4375 -94.257812 640.964844 -90.902344 641.390625 C -92.261719 637.136719 -92.570312 632.648438 -93.003906 628.230469 C -94.386719 610.5625 -93.277344 592.703125 -89.640625 575.355469 C -87.914062 566.730469 -85.746094 558.199219 -83.476562 549.707031 C -82.398438 545.023438 -80.90625 540.316406 -81.398438 535.453125 C -85.628906 538.066406 -90.734375 539.46875 -95.699219 538.679688 C -103.152344 537.671875 -109.515625 532.90625 -114.273438 527.308594 C -119.054688 521.617188 -122.671875 514.964844 -125.019531 507.917969 C -126.117188 504.792969 -127.308594 501.679688 -127.886719 498.402344 C -116.070312 499.039062 -104.039062 500.640625 -93.179688 505.585938 C -89.3125 507.257812 -86.042969 509.933594 -82.8125 512.574219 C -83.53125 506.984375 -83.964844 501.367188 -84.457031 495.757812 C -88.269531 498.210938 -93.308594 498.175781 -97.328125 496.242188 C -102.605469 494.019531 -106.734375 489.785156 -110.042969 485.21875 C -113.144531 480.832031 -115.480469 475.941406 -117.234375 470.875 C -109.570312 470.640625 -101.777344 470.703125 -94.335938 472.785156 C -92.105469 473.339844 -90.097656 474.507812 -87.910156 475.183594 C -88.179688 474.515625 -88.453125 473.855469 -88.726562 473.1875 C -93.363281 468.410156 -99.71875 465.835938 -104.507812 461.234375 C -107.84375 458.308594 -110.945312 455.136719 -114.035156 451.960938 C -119.398438 446.675781 -122.703125 439.753906 -125.699219 432.953125 C -127.136719 428.546875 -129.480469 424.484375 -130.59375 419.964844 C -131.207031 417.171875 -132.328125 414.527344 -133.179688 411.800781 C -135.738281 403.015625 -137.980469 394.144531 -139.945312 385.203125 C -136.8125 384.105469 -133.546875 383.46875 -130.3125 382.726562 C -130.558594 385.546875 -130.121094 388.351562 -129.671875 391.128906 C -128.496094 397.78125 -126.839844 404.347656 -124.875 410.8125 C -123.914062 414.96875 -122.363281 418.964844 -120.929688 422.972656 C -116.3125 432.621094 -107.960938 440.042969 -98.59375 444.964844 C -95.039062 446.65625 -91.535156 448.644531 -87.628906 449.386719 C -88.375 445.863281 -88.277344 442.246094 -88.328125 438.667969 C -88.015625 418.535156 -85.6875 398.5 -83.328125 378.523438 C -81.167969 382.9375 -78.800781 387.277344 -76.789062 391.753906 C -79.257812 403.203125 -79.753906 414.996094 -79.191406 426.671875 C -78.902344 431.285156 -78.675781 435.90625 -78.046875 440.492188 C -71.566406 433.277344 -62.023438 429.902344 -52.664062 428.441406 C -53.625 434.734375 -55.488281 440.914062 -58.300781 446.632812 C -60.738281 451.351562 -64.246094 456.195312 -69.648438 457.640625 C -71.589844 458.351562 -73.671875 458.078125 -75.675781 457.96875 C -73.136719 472.558594 -69.8125 487.019531 -65.5625 501.199219 C -64.496094 498.414062 -64.046875 495.445312 -63.191406 492.59375 C -56.917969 470.171875 -48.480469 448.417969 -39.238281 427.074219 C -32.636719 410.535156 -27.929688 393.324219 -23.695312 376.054688 C -17.589844 350.523438 -12.757812 324.695312 -8.773438 298.753906 M 1043.90625 154.089844 C 1043.566406 163.316406 1043 172.539062 1042.847656 181.773438 C 1042.765625 190.09375 1042.492188 198.4375 1043.082031 206.746094 C 1044.816406 204.746094 1046.394531 202.585938 1048.429688 200.855469 C 1055.75 194.359375 1065.234375 190.964844 1074.675781 188.9375 C 1073.941406 196.257812 1072.542969 203.546875 1070.09375 210.496094 C 1069.359375 212.707031 1068.089844 214.722656 1067.617188 217.019531 C 1068.078125 216.609375 1068.535156 216.179688 1069.003906 215.734375 C 1075 209.0625 1080.808594 202.214844 1086.976562 195.699219 C 1084.558594 194.460938 1081.960938 193.40625 1080.0625 191.394531 C 1076.242188 187.820312 1074.683594 182.453125 1074.808594 177.332031 C 1074.953125 169.246094 1078.085938 161.515625 1082.164062 154.644531 C 1082.324219 154.546875 1082.644531 154.351562 1082.796875 154.253906 C 1082.847656 153.71875 1082.925781 153.183594 1083.015625 152.644531 C 1077.363281 156.574219 1070.8125 159.652344 1063.84375 159.945312 C 1056.914062 160.296875 1050.109375 157.664062 1044.644531 153.527344 C 1044.457031 153.664062 1044.085938 153.949219 1043.90625 154.089844 M 73.253906 527.292969 C 70.261719 530.0625 66.519531 532.195312 62.40625 532.597656 C 63.972656 536.316406 65.46875 540.207031 65.339844 544.308594 C 65.429688 549.28125 62.828125 553.90625 59.300781 557.261719 C 59.253906 559.585938 58.882812 561.886719 58.683594 564.203125 C 64.585938 559.714844 71.894531 557.601562 79.191406 556.882812 C 78.101562 562.605469 76.015625 568.132812 73.191406 573.222656 C 70.964844 576.949219 67.941406 580.664062 63.570312 581.84375 C 61.214844 582.78125 58.65625 582.246094 56.277344 581.726562 C 55.035156 592.039062 53.433594 602.308594 51.980469 612.597656 C 51.628906 615.351562 50.984375 618.074219 50.957031 620.863281 C 55.972656 616.351562 60.699219 611.523438 65.566406 606.855469 C 66.035156 608.574219 66.636719 610.296875 66.640625 612.101562 C 66.316406 613.617188 65.574219 615 65.011719 616.4375 C 73.082031 615.476562 81.25 616.726562 88.976562 619.09375 C 87.070312 621.804688 85.007812 624.398438 82.824219 626.882812 C 77.960938 632.285156 72.53125 637.414062 65.878906 640.523438 C 61.921875 642.320312 57.222656 643.132812 53.066406 641.539062 C 51.332031 640.917969 49.855469 639.800781 48.265625 638.917969 C 45.660156 641.363281 43.574219 644.324219 41.09375 646.898438 C 34.433594 654.332031 27.664062 661.667969 20.738281 668.855469 C 20.765625 668.996094 20.824219 669.28125 20.847656 669.421875 C 25.859375 668.195312 31.132812 669.871094 35.257812 672.761719 C 41.226562 676.929688 45.699219 683.007812 48.738281 689.558594 C 41.28125 690.914062 33.511719 691.359375 26.050781 689.769531 C 21.898438 688.746094 17.535156 686.785156 15.398438 682.867188 C 14.160156 680.984375 14.042969 678.679688 13.644531 676.53125 C 11.605469 678.195312 9.867188 680.183594 8.003906 682.035156 C 4.140625 686.074219 0.15625 689.984375 -3.773438 693.957031 C -4.945312 695.175781 -6.386719 696.246094 -6.957031 697.902344 C 8.050781 698.390625 22.011719 705.269531 33.96875 713.917969 C 27.398438 718.855469 20.316406 723.113281 12.925781 726.710938 C 5.058594 730.460938 -3.386719 733.550781 -12.191406 733.738281 C -15.152344 733.855469 -18.058594 733.226562 -20.941406 732.632812 C -20.886719 735.996094 -20.960938 739.367188 -21.148438 742.726562 C -17.386719 739.632812 -12.714844 737.84375 -7.925781 737.152344 C 0.375 735.914062 8.871094 737.167969 16.820312 739.6875 C 12.957031 745.148438 8.535156 750.246094 3.472656 754.628906 C -0.945312 758.332031 -5.957031 761.839844 -11.777344 762.734375 C -15.125 763.382812 -18.539062 762.535156 -21.5625 761.09375 C -21.523438 766.316406 -21.714844 771.539062 -21.820312 776.765625 C -21.902344 777.695312 -21.480469 778.558594 -20.992188 779.332031 C -16.742188 786.015625 -12.628906 792.785156 -8.441406 799.503906 C -6.199219 803.308594 -3.632812 806.921875 -1.589844 810.839844 C 3.621094 802.710938 9.953125 795.394531 16.234375 788.085938 C 29.121094 773.339844 42.421875 758.9375 56.414062 745.222656 C 59.121094 742.355469 61.320312 739.0625 63.488281 735.78125 C 69.851562 725.949219 75.066406 715.445312 80.417969 705.046875 C 84.707031 695.976562 89.214844 686.996094 93.175781 677.773438 C 98.503906 667.144531 101.816406 655.660156 104.589844 644.140625 C 107.613281 631.1875 110 618.078125 111.640625 604.878906 C 103.886719 597.503906 98.089844 588.300781 93.761719 578.570312 C 89.757812 569.84375 86.8125 560.65625 84.40625 551.382812 C 83.75 547.21875 81.109375 543.777344 80.035156 539.753906 C 78.980469 536.015625 78.570312 532.089844 79.023438 528.226562 C 79.363281 525.734375 78.675781 523.28125 78.324219 520.832031 C 76.710938 523.042969 75.304688 525.453125 73.253906 527.292969 M 1044.667969 228.109375 C 1045.175781 232.269531 1045.945312 236.433594 1047.476562 240.355469 C 1051.304688 235.882812 1055.378906 231.605469 1058.949219 226.921875 C 1056.589844 227.867188 1054.207031 228.996094 1051.628906 229.054688 C 1049.257812 229.207031 1046.945312 228.648438 1044.667969 228.109375 M -39.714844 729.105469 C -39.734375 735.621094 -39.222656 742.117188 -38.679688 748.605469 C -38.59375 749.714844 -38.164062 750.761719 -37.601562 751.71875 C -35.074219 756.050781 -32.488281 760.347656 -29.976562 764.691406 C -29.238281 761.902344 -29.117188 759.003906 -28.683594 756.167969 C -27.574219 747.566406 -26.519531 738.964844 -25.402344 730.363281 C -28.40625 728.445312 -30.878906 725.777344 -32.675781 722.710938 C -35.265625 724.570312 -37.273438 727.082031 -39.714844 729.105469 M 101.6875 719.191406 C 85.269531 741.710938 68.929688 764.296875 52.140625 786.542969 C 47.511719 794.152344 43.035156 802.417969 42.738281 811.527344 C 42.839844 811.976562 43.039062 812.867188 43.136719 813.3125 C 61.316406 803.132812 79.621094 793.183594 97.960938 783.300781 C 116.050781 773.515625 134.222656 763.867188 152.066406 753.644531 C 156.890625 750.742188 161.882812 748.039062 166.289062 744.53125 C 166.257812 744.335938 166.1875 743.949219 166.15625 743.757812 C 160.164062 744.445312 153.929688 742.878906 149.1875 739.109375 C 140.570312 732.550781 136.300781 721.945312 134.097656 711.660156 C 124.5 713.28125 114.847656 714.5625 105.214844 715.972656 C 103.339844 716.011719 102.695312 717.957031 101.6875 719.191406 M 166.921875 706.539062 C 172.195312 711.425781 176.894531 717.628906 177.558594 725.019531 C 177.699219 724.898438 177.984375 724.660156 178.128906 724.539062 C 179.972656 719.355469 181.796875 714.164062 183.273438 708.859375 C 183.703125 707.183594 184.519531 705.519531 184.269531 703.75 C 178.441406 704.324219 172.699219 705.585938 166.921875 706.539062 M 191.234375 702.5 C 191.234375 705.0625 190.597656 707.554688 190.339844 710.089844 C 192.753906 708.660156 195.402344 707.601562 198.164062 707.066406 C 205.390625 705.613281 212.890625 706.617188 219.898438 708.667969 C 216.230469 714.007812 211.949219 718.996094 206.851562 723.03125 C 203.1875 725.914062 198.8125 728.390625 194.03125 728.445312 C 191.027344 728.5 188.242188 727.121094 185.90625 725.351562 C 183.613281 730.855469 181.792969 736.558594 179.265625 741.96875 C 179.289062 742.339844 179.324219 742.710938 179.367188 743.09375 C 184.132812 740.621094 189.3125 739.136719 194.46875 737.710938 C 210.339844 733.378906 226.664062 731.054688 242.691406 727.382812 C 246.808594 726.230469 251.398438 725.667969 254.660156 722.636719 C 254.519531 719.007812 255.734375 715.539062 256.753906 712.113281 C 259.558594 703.421875 263.101562 694.992188 266.546875 686.542969 C 264.871094 686.621094 263.300781 687.226562 261.699219 687.652344 C 241.925781 692.675781 221.910156 696.753906 201.828125 700.328125 C 198.324219 701.1875 194.695312 701.472656 191.234375 702.5 M 269.332031 740.765625 C 270.34375 741.171875 271.367188 741.558594 272.417969 741.898438 C 274.277344 742.648438 276.078125 743.539062 277.890625 744.410156 C 278.402344 742.023438 279.644531 739.917969 280.890625 737.855469 C 276.9375 738.339844 273.078125 739.445312 269.332031 740.765625 M 406.371094 714.996094 C 406.503906 715.203125 406.761719 715.621094 406.894531 715.824219 C 407.984375 716.144531 409.074219 716.488281 410.183594 716.769531 C 409.730469 715.753906 409.292969 714.746094 408.832031 713.742188 C 407.996094 714.144531 407.179688 714.558594 406.371094 714.996094 Z M 406.371094 714.996094 " fill-opacity="1" fill-rule="nonzero"/></g></g></g></g></svg>